<?xml version="1.0" encoding="UTF-8" standalone="no"?>
<svg width="171px" height="34px" viewBox="0 0 171 34" version="1.1" xmlns="http://www.w3.org/2000/svg" xmlns:xlink="http://www.w3.org/1999/xlink" xmlns:sketch="http://www.bohemiancoding.com/sketch/ns">
    <!-- Generator: Sketch 3.4.4 (17248) - http://www.bohemiancoding.com/sketch -->
    <title>culogo_hd_white45alt</title>
    <desc>Created with Sketch.</desc>
    <defs></defs>
    <g id="Page-1" stroke="none" stroke-width="1" fill="none" fill-rule="evenodd" sketch:type="MSPage">
        <g id="culogo_hd_white45alt" sketch:type="MSLayerGroup" fill="#FFFFFF">
            <path d="M17.119,31.767 L16.927,31.686 C16.534,31.519 7.295,27.469 7.295,20.131 L7.297,6.954 L26.915,6.951 L26.916,20.365 C26.916,27.4 17.701,31.513 17.309,31.685 L17.119,31.767 L17.119,31.767 Z M8.256,7.913 L8.254,20.131 C8.254,26.285 15.807,30.104 17.115,30.716 C18.42,30.094 25.955,26.245 25.955,20.364 L25.954,7.911 L8.256,7.913 L8.256,7.913 Z" id="Shape" sketch:type="MSShapeGroup"></path>
            <path d="M12.785,14.669 L12.552,14.533 C12.51,14.508 11.506,13.919 10.833,13.469 C10.264,13.088 9.973,12.685 9.942,12.237 C9.935,12.143 9.935,10.352 9.937,8.864 L9.937,8.384 L15.68,8.384 L15.68,8.863 C15.685,11.029 15.684,12.164 15.679,12.235 C15.665,12.694 15.388,13.098 14.831,13.47 C14.153,13.925 13.069,14.516 13.023,14.54 L12.785,14.669 L12.785,14.669 Z M10.895,9.344 C10.895,10.56 10.895,12.061 10.898,12.174 C10.905,12.265 11.031,12.446 11.366,12.671 C11.824,12.979 12.462,13.364 12.801,13.567 C13.158,13.368 13.839,12.979 14.297,12.671 C14.423,12.588 14.714,12.375 14.719,12.204 L14.721,12.156 C14.724,12.052 14.723,10.557 14.721,9.345 L10.895,9.344 L10.895,9.344 L10.895,9.344 Z" id="Shape" sketch:type="MSShapeGroup"></path>
            <path d="M21.657,14.646 L21.422,14.51 C21.38,14.485 20.378,13.898 19.707,13.447 C19.138,13.066 18.846,12.663 18.814,12.215 C18.808,12.141 18.806,11.007 18.809,8.841 L18.809,8.362 L24.551,8.362 L24.552,8.841 C24.557,11.007 24.556,12.142 24.55,12.214 C24.54,12.667 24.263,13.073 23.705,13.448 C23.025,13.903 21.94,14.493 21.894,14.518 L21.657,14.646 L21.657,14.646 Z M19.769,9.322 C19.768,10.535 19.768,12.032 19.772,12.15 C19.778,12.244 19.906,12.424 20.241,12.65 C20.698,12.957 21.335,13.342 21.674,13.545 C22.03,13.346 22.712,12.958 23.171,12.65 C23.296,12.567 23.588,12.354 23.592,12.184 L23.594,12.135 C23.597,12.031 23.596,10.535 23.594,9.323 L19.769,9.323 L19.769,9.322 Z" id="Shape" sketch:type="MSShapeGroup"></path>
            <rect id="Rectangle-path" sketch:type="MSShapeGroup" x="7.37" y="15.008" width="19.202" height="0.95"></rect>
            <path d="M17.087,26.696 C16.763,26.696 16.579,26.467 16.48,26.344 C16.371,26.211 16.318,26.173 16.141,26.169 C15.619,26.169 15.236,26.205 14.792,26.243 C14.358,26.282 13.866,26.33 13.166,26.344 C12.473,26.359 11.935,26.332 11.912,26.331 L11.459,26.305 L11.46,17.31 L11.93,17.3 C12.074,17.297 12.24,17.298 12.434,17.298 C12.709,17.298 13.048,17.299 13.475,17.289 C13.801,17.28 14.183,17.24 14.623,17.193 C14.883,17.166 15.161,17.137 15.46,17.11 C16.078,17.041 16.641,17.155 16.665,17.16 C16.837,17.2 16.982,17.255 17.103,17.318 C17.223,17.257 17.365,17.204 17.536,17.163 C17.57,17.157 18.132,17.041 18.763,17.113 C19.053,17.139 19.332,17.168 19.593,17.196 C20.032,17.243 20.412,17.284 20.736,17.292 C21.162,17.302 21.502,17.302 21.778,17.301 C21.974,17.301 22.139,17.301 22.282,17.304 L22.752,17.314 L22.753,26.308 L22.3,26.335 C22.277,26.335 21.739,26.364 21.046,26.347 C20.347,26.333 19.855,26.286 19.42,26.247 C18.97,26.208 18.58,26.172 18.044,26.173 C17.857,26.173 17.805,26.232 17.69,26.364 C17.582,26.485 17.398,26.696 17.087,26.696 L17.087,26.696 Z M16.141,25.211 L16.171,25.211 C16.645,25.213 16.925,25.415 17.095,25.592 C17.273,25.414 17.558,25.213 18.042,25.211 C18.632,25.219 19.052,25.248 19.508,25.288 C19.946,25.331 20.402,25.371 21.069,25.386 C21.344,25.392 21.595,25.391 21.793,25.387 L21.792,18.258 C21.734,18.26 21.673,18.258 21.608,18.258 C21.358,18.258 21.065,18.257 20.712,18.25 C20.35,18.241 19.952,18.198 19.49,18.148 C19.236,18.121 18.961,18.09 18.665,18.066 C18.18,18.009 17.745,18.098 17.741,18.099 C17.491,18.159 17.413,18.259 17.41,18.264 L17.141,18.106 L16.833,18.285 L16.833,18.286 C16.831,18.286 16.728,18.161 16.456,18.097 L16.456,18.097 C16.455,18.097 16.023,18.012 15.556,18.066 C15.251,18.091 14.979,18.122 14.724,18.149 C14.262,18.198 13.862,18.242 13.496,18.251 C13.06,18.259 12.714,18.259 12.432,18.259 L12.419,18.259 L12.418,25.388 C12.618,25.392 12.869,25.393 13.143,25.387 C13.81,25.372 14.265,25.332 14.705,25.289 C15.152,25.249 15.576,25.211 16.141,25.211 L16.141,25.211 Z" id="Shape" sketch:type="MSShapeGroup"></path>
            <rect id="Rectangle-path" sketch:type="MSShapeGroup" x="10.417" y="10.26" width="4.747" height="0.798"></rect>
            <rect id="Rectangle-path" sketch:type="MSShapeGroup" x="10.417" y="10.18" width="4.747" height="0.959"></rect>
            <rect id="Rectangle-path" sketch:type="MSShapeGroup" x="16.674" y="15.179" width="0.798" height="16.146"></rect>
            <rect id="Rectangle-path" sketch:type="MSShapeGroup" x="16.713" y="15.179" width="0.72" height="16.146"></rect>
            <path d="M23.702,11.993 L21.593,10.587 L19.659,11.985 L19.191,11.338 L21.576,9.616 L24.145,11.329 L23.702,11.993 Z" id="Shape" sketch:type="MSShapeGroup"></path>
            <path d="M23.724,12.061 L21.661,10.686 L19.773,12.05 L19.211,11.273 L21.64,9.517 L24.256,11.262 L23.724,12.061 Z" id="Shape" sketch:type="MSShapeGroup"></path>
            <path d="M20.891,19.703 C20.755,19.7 20.364,19.687 20.016,19.679 L19.682,19.669 C19.49,19.665 19.269,19.643 19.015,19.613 C18.888,19.601 18.752,19.585 18.608,19.572 C18.531,19.563 18.46,19.563 18.397,19.565 L18.376,19.061 C18.463,19.056 18.559,19.059 18.658,19.069 C18.802,19.083 18.941,19.097 19.07,19.113 C19.309,19.136 19.517,19.161 19.697,19.165 L20.031,19.173 C20.379,19.185 20.768,19.194 20.904,19.197 L20.891,19.703 L20.891,19.703 Z" id="Shape" sketch:type="MSShapeGroup"></path>
            <path d="M20.892,21.242 L19.684,21.211 C19.494,21.207 19.277,21.184 19.029,21.157 C18.897,21.144 18.758,21.128 18.607,21.115 C18.527,21.104 18.456,21.102 18.392,21.103 L18.377,20.602 C18.464,20.598 18.558,20.602 18.658,20.611 C18.806,20.623 18.949,20.64 19.082,20.654 C19.316,20.678 19.518,20.702 19.695,20.705 L20.902,20.735 L20.892,21.242 L20.892,21.242 Z" id="Shape" sketch:type="MSShapeGroup"></path>
            <path d="M20.893,22.78 C20.794,22.779 20.563,22.773 20.311,22.766 L19.684,22.748 C19.496,22.745 19.28,22.723 19.034,22.696 C18.903,22.682 18.761,22.667 18.608,22.652 C18.531,22.645 18.458,22.643 18.395,22.645 L18.376,22.141 C18.462,22.139 18.557,22.141 18.656,22.151 C18.808,22.164 18.953,22.18 19.087,22.194 C19.319,22.218 19.519,22.242 19.694,22.244 L20.326,22.261 C20.575,22.269 20.804,22.275 20.901,22.276 L20.893,22.78 L20.893,22.78 Z" id="Shape" sketch:type="MSShapeGroup"></path>
            <path d="M20.892,24.321 C20.718,24.318 20.126,24.302 19.741,24.293 L19.683,24.291 C19.495,24.287 19.28,24.263 19.033,24.239 C18.901,24.224 18.76,24.209 18.608,24.194 C18.53,24.186 18.457,24.184 18.395,24.186 L18.377,23.681 C18.464,23.677 18.56,23.681 18.659,23.692 C18.808,23.706 18.952,23.72 19.086,23.736 C19.319,23.759 19.52,23.781 19.696,23.787 L19.754,23.789 C20.138,23.798 20.728,23.812 20.902,23.817 L20.892,24.321 L20.892,24.321 Z" id="Shape" sketch:type="MSShapeGroup"></path>
            <path d="M13.297,19.688 L13.287,19.186 C13.464,19.182 14.073,19.165 14.457,19.156 C14.681,19.152 14.892,19.128 15.136,19.102 C15.261,19.088 15.394,19.073 15.536,19.061 C15.624,19.051 15.714,19.044 15.794,19.05 L15.788,19.553 C15.723,19.552 15.656,19.554 15.586,19.563 C15.443,19.577 15.313,19.589 15.19,19.604 C14.931,19.632 14.708,19.655 14.505,19.661 C14.086,19.67 13.476,19.685 13.297,19.688 L13.297,19.688 Z" id="Shape" sketch:type="MSShapeGroup"></path>
            <path d="M13.297,21.229 L13.287,20.726 L14.495,20.695 C14.676,20.691 14.883,20.667 15.122,20.641 C15.251,20.628 15.389,20.612 15.536,20.599 C15.631,20.589 15.721,20.587 15.801,20.589 L15.78,21.095 C15.718,21.092 15.649,21.095 15.58,21.1 C15.439,21.115 15.304,21.127 15.178,21.144 C14.922,21.169 14.701,21.193 14.508,21.199 L13.297,21.229 L13.297,21.229 Z" id="Shape" sketch:type="MSShapeGroup"></path>
            <path d="M13.295,22.768 L13.289,22.263 C13.473,22.261 14.115,22.243 14.494,22.231 C14.672,22.229 14.878,22.209 15.117,22.184 C15.248,22.168 15.388,22.155 15.538,22.143 C15.621,22.13 15.711,22.128 15.794,22.13 L15.788,22.635 C15.726,22.635 15.659,22.635 15.59,22.642 C15.436,22.658 15.298,22.67 15.171,22.685 C14.92,22.712 14.702,22.735 14.504,22.738 C14.125,22.747 13.479,22.766 13.295,22.768 L13.295,22.768 Z" id="Shape" sketch:type="MSShapeGroup"></path>
            <path d="M13.295,24.312 L13.288,23.806 C13.461,23.804 14.041,23.788 14.425,23.778 L14.494,23.775 C14.679,23.771 14.888,23.747 15.132,23.723 C15.257,23.707 15.392,23.694 15.536,23.679 C15.622,23.671 15.711,23.668 15.793,23.671 L15.786,24.175 C15.724,24.175 15.657,24.174 15.588,24.182 C15.443,24.195 15.31,24.209 15.187,24.224 C14.927,24.252 14.704,24.278 14.508,24.282 L14.441,24.284 C14.053,24.291 13.469,24.31 13.295,24.312 L13.295,24.312 Z" id="Shape" sketch:type="MSShapeGroup"></path>
            <g id="Group" sketch:type="MSShapeGroup">
                <path d="M17.112,1.873 C8.576,1.873 1.632,8.817 1.632,17.353 C1.632,25.891 8.576,32.833 17.112,32.833 C25.648,32.833 32.593,25.891 32.593,17.353 C32.593,8.816 25.648,1.873 17.112,1.873 L17.112,1.873 Z M17.112,33.854 C8.014,33.854 0.613,26.45 0.613,17.354 C0.613,8.255 8.014,0.854 17.112,0.854 C26.21,0.854 33.612,8.255 33.612,17.354 C33.612,26.449 26.21,33.854 17.112,33.854 L17.112,33.854 Z" id="Shape"></path>
                <path d="M17.112,2.122 C8.714,2.122 1.882,8.954 1.882,17.353 C1.882,25.752 8.715,32.584 17.112,32.584 C25.509,32.584 32.343,25.752 32.343,17.353 C32.343,8.954 25.51,2.122 17.112,2.122 L17.112,2.122 Z M17.112,33.587 C8.161,33.587 0.88,26.303 0.88,17.353 C0.88,8.401 8.162,1.12 17.112,1.12 C26.063,1.12 33.346,8.402 33.346,17.353 C33.346,26.303 26.063,33.587 17.112,33.587 L17.112,33.587 Z" id="Shape"></path>
                <path d="M17.112,2.372 C8.852,2.372 2.132,9.092 2.132,17.353 C2.132,25.614 8.852,32.335 17.112,32.335 C25.372,32.335 32.093,25.614 32.093,17.353 C32.093,9.092 25.373,2.372 17.112,2.372 L17.112,2.372 Z M17.112,33.32 C8.308,33.32 1.146,26.156 1.146,17.353 C1.146,8.549 8.309,1.386 17.112,1.386 C25.916,1.386 33.08,8.549 33.08,17.353 C33.08,26.156 25.917,33.32 17.112,33.32 L17.112,33.32 Z" id="Shape"></path>
            </g>
            <g id="logotype-white" transform="translate(41.464286, 11.321429)" sketch:type="MSShapeGroup">
                <path d="M3.1522695,2.11134752 C3.55702128,1.71212766 4.02539007,1.41985816 4.55737589,1.23453901 C5.0893617,1.05014184 5.73659574,0.951489362 6.49907801,0.941347518 C7.51971631,0.941347518 8.29695035,1.07134752 8.82524823,1.32950355 C9.35446809,1.58765957 9.6458156,1.98134752 9.69929078,2.5087234 L9.70666667,3.46297872 L10.206383,3.46297872 C10.2386525,2.86276596 10.2976596,2.33170213 10.3824823,1.87624113 C10.4414894,1.59134752 10.53,1.3 10.6470922,1.00588652 C10.5134043,0.97822695 10.1464539,0.886028369 9.54900709,0.726524823 C8.95248227,0.569787234 8.44631206,0.460992908 8.03141844,0.404751773 C7.61468085,0.348510638 7.16382979,0.319929078 6.67609929,0.319929078 C4.61269504,0.319929078 2.98262411,0.88141844 1.79049645,2.00531915 C0.596524823,3.12921986 0,4.54631206 0,6.25751773 C0,6.93425532 0.0885106383,7.55475177 0.264609929,8.12085106 C0.441631206,8.68695035 0.699787234,9.2106383 1.03723404,9.69283688 C1.37560284,10.1768794 1.81170213,10.6129787 2.34460993,11.0011348 C2.87843972,11.3902128 3.50170213,11.6898582 4.21439716,11.897305 C4.9270922,12.1075177 5.69879433,12.2126241 6.52950355,12.2126241 C7.23851064,12.2126241 7.89219858,12.1397872 8.49333333,11.9978014 C9.0935461,11.8548936 9.70758865,11.6253191 10.336383,11.307234 L10.6489362,10.5585816 L10.5124823,10.3898582 C10.0874468,10.6876596 9.66241135,10.9080142 9.23276596,11.0463121 C8.60397163,11.2491489 7.92262411,11.3505674 7.18687943,11.3505674 C5.55588652,11.3505674 4.24390071,10.856383 3.25,9.86617021 C2.25702128,8.87687943 1.76099291,7.56950355 1.76099291,5.94496454 C1.76744681,5.01652482 1.89836879,4.24666667 2.15744681,3.63078014 C2.41468085,3.01765957 2.74659574,2.51056738 3.1522695,2.11134752 L3.1522695,2.11134752 Z M14.9951773,4.20425532 C13.7984397,4.20425532 12.8183688,4.58503546 12.0531206,5.34198582 C11.2878723,6.10170213 10.9052482,7.08085106 10.9052482,8.2812766 C10.9052482,8.94879433 11.0287943,9.57205674 11.2758865,10.1575177 C11.4141844,10.4885106 11.6197872,10.8139716 11.8871631,11.1302128 C12.156383,11.4473759 12.5058156,11.7092199 12.938227,11.9175887 C13.3706383,12.1278014 13.8980142,12.2310638 14.5212766,12.2310638 C15.3206383,12.2310638 16.053617,12.0494326 16.7192908,11.6815603 C17.3849645,11.3136879 17.9003546,10.8065957 18.263617,10.1575177 C18.6305674,9.50843972 18.8131206,8.79297872 18.8131206,8.01021277 C18.8131206,6.88907801 18.458156,5.97446809 17.7491489,5.26822695 C17.0410638,4.55829787 16.122766,4.20425532 14.9951773,4.20425532 L14.9951773,4.20425532 Z M16.6234043,10.9107801 C16.2039007,11.4031206 15.6848227,11.6502128 15.0634043,11.6502128 C14.5747518,11.6502128 14.1239007,11.4934752 13.7080851,11.18 C13.2931915,10.8665248 12.9751064,10.3704965 12.7556738,9.69191489 C12.5353191,9.01148936 12.4256028,8.34212766 12.4256028,7.6829078 C12.4256028,6.67609929 12.6302837,5.93574468 13.0414894,5.45815603 C13.4508511,4.98241135 13.9856028,4.74453901 14.6448227,4.74453901 C15.1122695,4.74453901 15.538227,4.87177305 15.922695,5.12624113 C16.3090071,5.38070922 16.6270922,5.81680851 16.8760284,6.43638298 C17.1258865,7.05411348 17.2503546,7.78893617 17.2503546,8.63900709 C17.2503546,9.66148936 17.0410638,10.4202837 16.6234043,10.9107801 L16.6234043,10.9107801 Z M24.4178723,4.24390071 C24.1929078,4.24390071 23.9743972,4.28539007 23.7651064,4.36836879 C23.5539716,4.4522695 23.3677305,4.5629078 23.207305,4.70212766 C23.1160284,4.78326241 22.9666667,4.96028369 22.7629078,5.2322695 C22.5591489,5.50609929 22.3360284,5.78361702 22.0944681,6.06113475 C22.098156,5.37241135 22.1082979,4.86255319 22.1285816,4.53524823 C22.1304255,4.48638298 22.1350355,4.44397163 22.1350355,4.40617021 C22.1350355,4.35177305 22.1221277,4.31120567 22.1,4.28446809 C22.0797163,4.25680851 22.0511348,4.24390071 22.0142553,4.24390071 C21.9755319,4.24390071 21.903617,4.27156028 21.7975887,4.32319149 C21.3043262,4.5629078 20.5224823,4.75652482 19.4511348,4.90404255 L19.4511348,5.36503546 C20.0513475,5.35950355 20.3961702,5.37148936 20.4828369,5.40099291 C20.5704255,5.43141844 20.6294326,5.47659574 20.6653901,5.53468085 C20.6976596,5.59368794 20.7216312,5.78269504 20.731773,6.09893617 C20.7585106,6.59312057 20.7723404,7.05503546 20.7723404,7.48468085 L20.7723404,8.4435461 C20.7723404,8.50900709 20.7585106,9.25765957 20.731773,10.6922695 C20.7216312,10.9550355 20.6884397,11.1495745 20.6358865,11.2731206 C20.608227,11.3367376 20.5704255,11.3865248 20.5261702,11.4224823 C20.4791489,11.4575177 20.410922,11.4833333 20.3187234,11.4980851 C20.2698582,11.5091489 19.9388652,11.5192908 19.3312766,11.5303546 L19.3312766,11.9904255 C19.9720567,11.9498582 20.6377305,11.9314184 21.322766,11.9314184 C21.9875177,11.9314184 22.7905674,11.9507801 23.7337589,11.9904255 L23.7337589,11.5303546 C23.0256738,11.4833333 22.5904965,11.4344681 22.4300709,11.3856028 C22.3489362,11.3607092 22.291773,11.3265957 22.2567376,11.2860284 C22.2226241,11.246383 22.1940426,11.179078 22.1737589,11.0878014 C22.1516312,10.9974468 22.1368794,10.7863121 22.1331915,10.4534752 C22.1055319,9.51489362 22.0926241,8.87042553 22.0926241,8.51638298 L22.0926241,7.68659574 C22.0926241,7.00524823 22.2364539,6.49539007 22.5259574,6.15425532 C22.818227,5.81588652 23.1685816,5.64439716 23.5825532,5.64439716 C23.8305674,5.64439716 24.0370922,5.70432624 24.1993617,5.82049645 C24.3653191,5.93851064 24.507305,6.12567376 24.633617,6.3829078 L24.9950355,6.3829078 C25.0051773,5.84078014 25.0521986,5.21382979 25.1351773,4.50021277 L25.087234,4.38957447 C24.8668794,4.29276596 24.6437589,4.24390071 24.4178723,4.24390071 L24.4178723,4.24390071 Z M33.9807092,11.3883688 C33.9235461,11.3284397 33.8839007,11.2168794 33.8553191,11.0564539 C33.8267376,10.8047518 33.8147518,10.3299291 33.8147518,9.63382979 L33.8147518,8.2093617 C33.8147518,7.10390071 33.7963121,6.43177305 33.7594326,6.18929078 C33.6930496,5.78269504 33.5630496,5.44432624 33.3685106,5.17695035 C33.1721277,4.9077305 32.8817021,4.68460993 32.4926241,4.50851064 C32.1026241,4.33333333 31.6886525,4.24390071 31.2543972,4.24390071 C30.8634752,4.24390071 30.4458156,4.32503546 30.0069504,4.48638298 L28.5087234,5.76425532 C28.5207092,5.13914894 28.532695,4.72886525 28.5428369,4.53617021 C28.5465248,4.48638298 28.5492908,4.44397163 28.5492908,4.40617021 C28.5492908,4.35177305 28.5391489,4.31120567 28.5188652,4.28446809 C28.4967376,4.25680851 28.468156,4.24390071 28.4294326,4.24390071 C28.3925532,4.24390071 28.3197163,4.27156028 28.2164539,4.32319149 C27.7213475,4.5629078 26.9385816,4.75652482 25.8653901,4.90404255 L25.8653901,5.36503546 C26.4674468,5.35950355 26.8104255,5.37148936 26.8961702,5.40099291 C26.9791489,5.43141844 27.04,5.47659574 27.0722695,5.53468085 C27.106383,5.59368794 27.1331206,5.78269504 27.1478723,6.09893617 C27.1755319,6.59312057 27.1884397,7.05503546 27.1884397,7.48468085 L27.1884397,8.4435461 C27.1617021,9.91595745 27.1478723,10.6876596 27.1478723,10.7586525 C27.1331206,11.0306383 27.0943972,11.2224113 27.0344681,11.3293617 C27.0040426,11.3837589 26.9570213,11.4261702 26.8943262,11.4621277 C26.8334752,11.4980851 26.7458865,11.5183688 26.6324823,11.5220567 L25.8653901,11.5312766 L25.8653901,11.9913475 C26.8814184,11.9507801 27.6134752,11.9323404 28.0643262,11.9323404 C28.5917021,11.9323404 29.181773,11.9517021 29.834539,11.9913475 L29.834539,11.5312766 C29.2748936,11.5202128 28.9770922,11.5128369 28.9466667,11.507305 C28.8526241,11.4879433 28.7862411,11.4584397 28.7438298,11.4234043 C28.7014184,11.3883688 28.668227,11.3459574 28.6470213,11.2980142 C28.5917021,11.1744681 28.5612766,10.9790071 28.5502128,10.7107092 C28.5502128,10.598227 28.538227,9.84588652 28.5096454,8.44907801 L28.5096454,7.47638298 C28.5096454,6.88723404 28.5806383,6.4677305 28.7226241,6.21787234 C28.8636879,5.96801418 29.1015603,5.74858156 29.4343972,5.55312057 C29.767234,5.36042553 30.1341844,5.26546099 30.5334043,5.26546099 C30.9897872,5.26546099 31.3779433,5.37425532 31.6997163,5.59368794 C32.0205674,5.81312057 32.2270922,6.10446809 32.3156028,6.46404255 C32.3801418,6.7277305 32.4124113,7.27907801 32.4124113,8.12177305 L32.4124113,9.47524823 C32.4124113,9.82468085 32.3865957,10.662766 32.3340426,11.9885816 C33.0255319,11.9480142 33.5187943,11.9295745 33.8165957,11.9295745 C34.1614184,11.9295745 34.5956738,11.9489362 35.1165957,11.9885816 L35.1165957,11.5285106 L34.2443972,11.504539 C34.124539,11.4897872 34.0369504,11.4510638 33.9807092,11.3883688 L33.9807092,11.3883688 Z M40.8697872,4.61453901 C40.3829787,4.34070922 39.841773,4.20425532 39.2415603,4.20425532 C38.7510638,4.20425532 38.2919149,4.29276596 37.8687234,4.46886525 C37.5460284,4.59794326 37.2214894,4.77312057 36.8951064,4.99531915 C36.5687234,5.21751773 36.3290071,5.4148227 36.1713475,5.58539007 C35.9574468,5.82049645 35.7675177,6.18560284 35.5987943,6.68163121 C35.428227,7.17673759 35.3461702,7.73269504 35.3461702,8.34858156 C35.3461702,9.13595745 35.5038298,9.82191489 35.8228369,10.4064539 C36.141844,10.9937589 36.5880851,11.4335461 37.1597163,11.7295035 C37.7313475,12.025461 38.3721277,12.1711348 39.0783688,12.1711348 C39.4379433,12.1711348 39.778156,12.1314894 40.102695,12.0521986 C40.4253901,11.9756738 40.7130496,11.8788652 40.9647518,11.766383 C41.1371631,11.6898582 41.404539,11.5368085 41.7760993,11.3044681 L42.0333333,10.724539 L41.9033333,10.5890071 C41.4248227,10.8711348 41.0228369,11.0656738 40.6982979,11.1726241 C40.3737589,11.2777305 40.0473759,11.3302837 39.7191489,11.3302837 C39.2369504,11.3302837 38.7704255,11.2168794 38.3214184,10.9919149 C37.8733333,10.7678723 37.5202128,10.4202837 37.2648227,9.94546099 C37.0094326,9.47248227 36.8775887,8.8529078 36.8674468,8.08673759 L39.453617,8.08673759 C40.0317021,8.08673759 40.6134752,8.06553191 41.1915603,8.02219858 C41.4976596,8.00191489 41.8443262,7.95212766 42.2315603,7.87744681 C42.2601418,7.66262411 42.2721277,7.48099291 42.2721277,7.32978723 C42.2721277,6.73695035 42.1587234,6.20312057 41.9337589,5.73106383 C41.7097163,5.25900709 41.3547518,4.88744681 40.8697872,4.61453901 L40.8697872,4.61453901 Z M40.7821986,7.48652482 C40.5553901,7.5141844 40.0870213,7.5270922 39.3706383,7.5270922 C39.0700709,7.5270922 38.5187234,7.51326241 37.7193617,7.48652482 C37.2989362,7.47453901 37.0149645,7.46070922 36.8656028,7.44595745 C36.8711348,6.51106383 37.0601418,5.82787234 37.4270922,5.39453901 C37.8014184,4.96120567 38.2900709,4.74546099 38.8967376,4.74546099 C39.4711348,4.74546099 39.9312057,4.94092199 40.2732624,5.33553191 C40.6153191,5.73014184 40.7904965,6.34971631 40.7904965,7.19056738 C40.7904965,7.2606383 40.7868085,7.35836879 40.7821986,7.48652482 L40.7821986,7.48652482 Z M45.6217021,11.4224823 C45.5792908,11.3865248 45.5460993,11.3450355 45.5239716,11.2970922 C45.4658865,11.1735461 45.434539,10.9780851 45.4290071,10.7097872 C45.4253191,10.597305 45.4105674,9.84404255 45.3902837,8.44723404 L45.3902837,4.27340426 L45.4041135,3.01765957 C45.4078014,2.34184397 45.4225532,1.52312057 45.4465248,0.563333333 L45.4529787,0.297801418 C45.4631206,0.227730496 45.4695745,0.174255319 45.4695745,0.136453901 C45.4695745,0.0931205674 45.4575887,0.059929078 45.437305,0.0359574468 C45.4151773,0.0119858156 45.3865957,0 45.3497163,0 C45.3109929,0 45.2584397,0.0165957447 45.1902128,0.0488652482 C44.721844,0.276595745 43.8874468,0.468368794 42.6870213,0.620496454 L42.6870213,1.08056738 C43.354539,1.08056738 43.7251773,1.09992908 43.8063121,1.13680851 C43.8671631,1.15893617 43.9114184,1.19673759 43.938156,1.25113475 C43.9750355,1.32765957 44.004539,1.68631206 44.0266667,2.32985816 C44.0534043,3.28595745 44.067234,4.21070922 44.067234,5.10595745 L44.067234,8.44723404 C44.0432624,9.9187234 44.0285106,10.6885816 44.0266667,10.7586525 C44.0165248,11.0324823 43.9805674,11.2224113 43.9215603,11.3293617 C43.8892908,11.3837589 43.8422695,11.4261702 43.7795745,11.4621277 C43.7168794,11.4980851 43.6274468,11.5183688 43.5085106,11.5220567 L42.7460284,11.5312766 L42.7460284,11.9913475 C43.5979433,11.9507801 44.2829787,11.9323404 44.8020567,11.9323404 C45.3515603,11.9323404 45.9868085,11.9517021 46.7078014,11.9913475 L46.7078014,11.5312766 C46.15,11.5202128 45.8521986,11.5128369 45.8153191,11.507305 C45.7295745,11.4860993 45.6641135,11.4575177 45.6217021,11.4224823 L45.6217021,11.4224823 Z M50.2537589,11.4224823 C50.2113475,11.3865248 50.178156,11.3450355 50.1569504,11.2970922 C50.0979433,11.1735461 50.0675177,10.9780851 50.0610638,10.7097872 C50.0573759,10.597305 50.0426241,9.84404255 50.0204965,8.44723404 L50.0204965,4.27340426 L50.0343262,3.01765957 C50.0407801,2.34184397 50.0546099,1.52312057 50.0785816,0.563333333 L50.0868794,0.297801418 C50.0951773,0.227730496 50.1016312,0.174255319 50.1016312,0.136453901 C50.1016312,0.0931205674 50.0896454,0.059929078 50.0693617,0.0359574468 C50.049078,0.0119858156 50.0186525,0 49.981773,0 C49.9430496,0 49.8895745,0.0165957447 49.8213475,0.0488652482 C49.3529787,0.276595745 48.5195035,0.468368794 47.319078,0.620496454 L47.319078,1.08056738 C47.9838298,1.08056738 48.359078,1.09992908 48.4402128,1.13680851 C48.4992199,1.15893617 48.5416312,1.19673759 48.5702128,1.25113475 C48.6070922,1.32765957 48.6375177,1.68631206 48.6596454,2.32985816 C48.686383,3.28595745 48.7002128,4.21070922 48.7002128,5.10595745 L48.7002128,8.44723404 C48.6762411,9.9187234 48.6633333,10.6885816 48.6596454,10.7586525 C48.6476596,11.0324823 48.6153901,11.2224113 48.554539,11.3293617 C48.5222695,11.3837589 48.4734043,11.4261702 48.4125532,11.4621277 C48.3498582,11.4980851 48.2604255,11.5183688 48.1405674,11.5220567 L47.3780851,11.5312766 L47.3780851,11.9913475 C48.23,11.9507801 48.9150355,11.9323404 49.4359574,11.9323404 C49.981773,11.9323404 50.6188652,11.9517021 51.3426241,11.9913475 L51.3426241,11.5312766 C50.7829787,11.5202128 50.4842553,11.5128369 50.4482979,11.507305 C50.3616312,11.4860993 50.2961702,11.4575177 50.2537589,11.4224823 L50.2537589,11.4224823 Z M67.1316312,0.560567376 C66.17,0.600212766 65.5043262,0.620496454 65.1382979,0.620496454 C64.7307801,0.620496454 64.089078,0.601134752 63.2067376,0.560567376 L63.2067376,1.08056738 C63.8382979,1.09163121 64.221844,1.11929078 64.3610638,1.16539007 C64.4984397,1.21056738 64.5989362,1.2806383 64.6607092,1.37468085 C64.7215603,1.4687234 64.7575177,1.77021277 64.7685816,2.27730496 C64.7962411,2.97340426 64.8091489,3.68333333 64.8091489,4.41170213 L64.8091489,6.88446809 C64.8091489,7.5851773 64.7833333,8.16510638 64.7317021,8.62148936 C64.6809929,9.07879433 64.5980142,9.44021277 64.481844,9.70021277 C64.3684397,9.96297872 64.1941844,10.1999291 63.960922,10.4119858 C63.7276596,10.6240426 63.3809929,10.8029078 62.9144681,10.9485816 C62.4479433,11.0960993 61.9168794,11.1689362 61.3166667,11.1689362 C60.8031206,11.1689362 60.3375177,11.115461 59.9207801,11.0048227 C59.5031206,10.8951064 59.1721277,10.7494326 58.9259574,10.5659574 C58.6051064,10.3262411 58.369078,10.0229078 58.2234043,9.65687943 C58.0758865,9.28992908 58.0030496,8.53021277 58.0030496,7.38141844 L58.0030496,4.41170213 C58.0224113,2.99829787 58.0353191,2.23950355 58.043617,2.13255319 C58.0592908,1.72042553 58.1017021,1.46042553 58.1708511,1.35347518 C58.2206383,1.27326241 58.3109929,1.21056738 58.4511348,1.16446809 C58.5894326,1.11836879 58.9748227,1.09070922 59.605461,1.07964539 L59.605461,0.560567376 C58.8512766,0.600212766 58.0897163,0.620496454 57.3253901,0.620496454 C56.5739716,0.620496454 55.7580142,0.601134752 54.8821277,0.560567376 L54.8821277,1.08056738 C55.51,1.09163121 55.8963121,1.11929078 56.031844,1.16539007 C56.1664539,1.21056738 56.2651064,1.2806383 56.3259574,1.37468085 C56.3868085,1.4687234 56.4255319,1.77021277 56.4412057,2.27730496 C56.4679433,2.97432624 56.481773,3.6851773 56.481773,4.41446809 L56.481773,7.96319149 C56.481773,8.99673759 56.5564539,9.73340426 56.7067376,10.1722695 C56.8247518,10.5051064 57.0414184,10.8296454 57.3576596,11.1486525 C57.6748227,11.4667376 58.1348936,11.7239716 58.7415603,11.9185106 C59.347305,12.1148936 60.0636879,12.2117021 60.8888652,12.2117021 C61.5969504,12.2117021 62.2414184,12.1268794 62.8222695,11.961844 C63.4040426,11.7958865 63.8797872,11.5626241 64.2513475,11.2629787 C64.7446099,10.8619149 65.0829787,10.398156 65.2692199,9.8735461 C65.453617,9.34893617 65.5458156,8.42695035 65.5458156,7.10297872 L65.5458156,4.41446809 C65.5624113,3.00106383 65.5688652,2.24134752 65.5688652,2.13347518 C65.584539,1.72042553 65.6260284,1.46134752 65.6887234,1.35347518 C65.7421986,1.27326241 65.8371631,1.21056738 65.975461,1.16446809 C66.1091489,1.11836879 66.494539,1.09070922 67.1316312,1.07964539 L67.1316312,0.560567376 L67.1316312,0.560567376 Z M75.1565957,11.3883688 C75.0994326,11.3284397 75.0579433,11.2168794 75.0284397,11.0564539 C75.0026241,10.8047518 74.9897163,10.3299291 74.9897163,9.63382979 L74.9897163,8.2093617 C74.9897163,7.10390071 74.9694326,6.43177305 74.9325532,6.18929078 C74.8680142,5.78269504 74.7361702,5.44432624 74.5407092,5.17695035 C74.3461702,4.9077305 74.0548227,4.68460993 73.6648227,4.50851064 C73.2757447,4.33241135 72.864539,4.24205674 72.4293617,4.24205674 C72.0365957,4.24205674 71.6207801,4.32319149 71.1819149,4.48453901 L69.6855319,5.76241135 C69.6956738,5.13730496 69.7058156,4.72702128 69.7178014,4.53432624 C69.7214894,4.48453901 69.7214894,4.44212766 69.7214894,4.40432624 C69.7214894,4.34992908 69.7113475,4.3093617 69.6938298,4.28262411 C69.6698582,4.25496454 69.6403546,4.24205674 69.6043972,4.24205674 C69.5675177,4.24205674 69.4946809,4.26971631 69.3895745,4.32134752 C68.8953901,4.56106383 68.1117021,4.75468085 67.0412766,4.90219858 L67.0412766,5.36319149 C67.6414894,5.35765957 67.9835461,5.36964539 68.0692908,5.39914894 C68.1522695,5.42957447 68.2131206,5.47475177 68.2453901,5.53283688 C68.2795035,5.59184397 68.3053191,5.78085106 68.3219149,6.0970922 C68.3477305,6.5912766 68.3624823,7.05319149 68.3624823,7.48283688 L68.3624823,8.44170213 C68.3348227,9.91411348 68.3219149,10.6858156 68.3219149,10.7568085 C68.3053191,11.0287943 68.2665957,11.2205674 68.2085106,11.3275177 C68.1762411,11.3819149 68.1301418,11.4243262 68.0692908,11.4602837 C68.0065957,11.4962411 67.9190071,11.5165248 67.8074468,11.5202128 L67.0412766,11.5294326 L67.0412766,11.9895035 C68.057305,11.9489362 68.7893617,11.9304965 69.2374468,11.9304965 C69.7666667,11.9304965 70.3576596,11.9498582 71.0085816,11.9895035 L71.0085816,11.5294326 C70.4489362,11.5183688 70.1520567,11.5109929 70.1197872,11.505461 C70.0257447,11.4860993 69.9621277,11.4565957 69.9169504,11.4215603 C69.873617,11.3865248 69.8413475,11.3441135 69.8210638,11.2961702 C69.7657447,11.1726241 69.7334752,10.9771631 69.7214894,10.7088652 C69.7214894,10.596383 69.7095035,9.84404255 69.6855319,8.44723404 L69.6855319,7.47638298 C69.6855319,6.88723404 69.7546809,6.4677305 69.8948227,6.21787234 C70.0386525,5.96801418 70.2737589,5.74858156 70.6065957,5.55312057 C70.9385106,5.36042553 71.306383,5.26546099 71.7074468,5.26546099 C72.1610638,5.26546099 72.5510638,5.37425532 72.8709929,5.59368794 C73.1946099,5.81312057 73.3983688,6.10446809 73.4905674,6.46404255 C73.5551064,6.7277305 73.5873759,7.27907801 73.5873759,8.12177305 L73.5873759,9.47524823 C73.5873759,9.82468085 73.5587943,10.662766 73.5062411,11.9885816 C74.1977305,11.9480142 74.6900709,11.9295745 74.9878723,11.9295745 C75.334539,11.9295745 75.7669504,11.9489362 76.2897163,11.9885816 L76.2897163,11.5285106 L75.4184397,11.504539 C75.3004255,11.4897872 75.2128369,11.4510638 75.1565957,11.3883688 L75.1565957,11.3883688 Z M78.8675887,2.46262411 C79.1109929,2.46262411 79.3239716,2.37411348 79.5000709,2.19801418 C79.6743262,2.02191489 79.7637589,1.81078014 79.7637589,1.56460993 C79.7637589,1.31475177 79.6770922,1.10085106 79.5046809,0.923829787 C79.3304255,0.748652482 79.1174468,0.660141844 78.8685106,0.660141844 C78.6177305,0.660141844 78.4038298,0.748652482 78.2277305,0.923829787 C78.0516312,1.09992908 77.9640426,1.31382979 77.9640426,1.56460993 C77.9640426,1.81078014 78.0516312,2.02099291 78.2277305,2.19801418 C78.4038298,2.37503546 78.6168085,2.46262411 78.8675887,2.46262411 L78.8675887,2.46262411 Z M79.883617,11.4224823 C79.8412057,11.3874468 79.8061702,11.3459574 79.7812766,11.2970922 C79.7250355,11.1735461 79.6973759,10.9771631 79.690922,10.7107092 C79.6844681,10.598227 79.6715603,9.84496454 79.6439007,8.45276596 L79.6439007,6.99141844 C79.6439007,6.38567376 79.6568085,5.51255319 79.6826241,4.37205674 L79.5092908,4.2448227 C78.8113475,4.57765957 77.9474468,4.80539007 76.9231206,4.92432624 L76.9231206,5.38531915 C77.5519149,5.38531915 77.9087234,5.40468085 77.9898582,5.44432624 C78.0746809,5.48489362 78.129078,5.5448227 78.1622695,5.62503546 C78.2157447,5.77439716 78.2434043,6.24921986 78.2434043,7.04489362 L78.2434043,8.45737589 C78.2157447,9.92241135 78.2028369,10.6913475 78.2028369,10.7595745 C78.1862411,11.0334043 78.1475177,11.2233333 78.0894326,11.3293617 C78.0590071,11.3837589 78.0101418,11.4270922 77.9502128,11.4630496 C77.8875177,11.4971631 77.7999291,11.5174468 77.6883688,11.5220567 L76.9240426,11.5294326 L76.9240426,11.9922695 C77.8930496,11.9517021 78.5928369,11.9314184 79.0206383,11.9314184 C79.5046809,11.9314184 80.1556028,11.9517021 80.9651064,11.9922695 L80.9651064,11.5294326 C80.405461,11.5192908 80.1095035,11.5128369 80.0763121,11.507305 C79.9905674,11.4842553 79.9260284,11.4565957 79.883617,11.4224823 L79.883617,11.4224823 Z M89.502695,4.42276596 C88.6646099,4.46333333 88.1510638,4.48453901 87.9629787,4.48453901 C87.7398582,4.48453901 87.227234,4.46333333 86.4278723,4.42276596 L86.4278723,4.88375887 C86.9847518,4.90035461 87.3286525,4.94184397 87.4577305,5.01283688 C87.5268794,5.05156028 87.5628369,5.1151773 87.5628369,5.20829787 C87.5628369,5.27744681 87.5508511,5.35858156 87.5305674,5.44893617 C87.4439007,5.78914894 87.2733333,6.27964539 87.0133333,6.92134752 C86.5744681,8.02496454 86.3301418,8.63070922 86.2812766,8.73858156 L85.478227,10.5724113 C85.3795745,10.3566667 85.1997872,9.92886525 84.9370213,9.28808511 L84.7009929,8.73858156 L83.72,6.28148936 C83.5033333,5.74858156 83.394539,5.40099291 83.394539,5.2387234 C83.394539,5.13730496 83.4461702,5.05617021 83.5494326,4.99716312 C83.6499291,4.93815603 83.9910638,4.90035461 84.5709929,4.88375887 L84.5709929,4.42276596 C83.785461,4.46333333 83.1686525,4.48453901 82.7187234,4.48453901 C82.3121277,4.48453901 81.6621277,4.46333333 80.7724113,4.42276596 L80.7724113,4.88375887 C81.0951064,4.8948227 81.2933333,4.91141844 81.3680142,4.93262411 C81.4602128,4.95382979 81.5422695,5.00453901 81.6178723,5.08567376 C81.6934752,5.16680851 81.7847518,5.32815603 81.8917021,5.56971631 L83.5429787,9.42085106 L84.2021986,10.9633333 C84.2814894,11.1514184 84.4253191,11.5202128 84.6364539,12.0687943 L85.478227,12.0687943 C86.2702128,10.1741135 86.7348936,9.07879433 86.8695035,8.78283688 L87.6421277,7.12787234 C88.1455319,6.09432624 88.4368794,5.51347518 88.5115603,5.38347518 C88.6175887,5.18893617 88.726383,5.06078014 88.8370213,4.99900709 C88.9485816,4.93723404 89.1670922,4.89851064 89.502695,4.88283688 L89.502695,4.42276596 L89.502695,4.42276596 Z M94.966383,4.61453901 C94.4823404,4.34070922 93.9402128,4.20425532 93.337234,4.20425532 C92.8467376,4.20425532 92.3885106,4.29276596 91.9643972,4.46886525 C91.6435461,4.59794326 91.3199291,4.77312057 90.9926241,4.99531915 C90.6662411,5.21751773 90.4246809,5.4148227 90.2707092,5.58539007 C90.0558865,5.82049645 89.8641135,6.18560284 89.6953901,6.68163121 C89.5266667,7.17673759 89.441844,7.73269504 89.441844,8.34858156 C89.441844,9.13595745 89.6022695,9.82191489 89.9212766,10.4064539 C90.2393617,10.9937589 90.6837589,11.4335461 91.2553901,11.7295035 C91.8288652,12.024539 92.4678014,12.1711348 93.1758865,12.1711348 C93.532695,12.1711348 93.8756738,12.1314894 94.1974468,12.0521986 C94.5201418,11.9756738 94.8078014,11.8788652 95.0622695,11.766383 C95.2328369,11.6898582 95.5020567,11.5368085 95.8708511,11.3044681 L96.1290071,10.724539 L95.9980851,10.5890071 C95.5195745,10.8711348 95.1203546,11.0656738 94.7930496,11.1726241 C94.4685106,11.2777305 94.1421277,11.3302837 93.8157447,11.3302837 C93.3307801,11.3302837 92.8670213,11.2168794 92.4161702,10.9919149 C91.9699291,10.7678723 91.6168085,10.4202837 91.3604965,9.94546099 C91.1051064,9.47248227 90.9732624,8.8529078 90.9631206,8.08673759 L93.5465248,8.08673759 C94.1264539,8.08673759 94.707305,8.06553191 95.289078,8.02219858 C95.5933333,8.00191489 95.94,7.95212766 96.327234,7.87744681 C96.3539716,7.66262411 96.3659574,7.48099291 96.3659574,7.32978723 C96.3659574,6.73695035 96.2543972,6.20312057 96.0294326,5.73106383 C95.8053901,5.25900709 95.4504255,4.88744681 94.966383,4.61453901 L94.966383,4.61453901 Z M94.8787943,7.48652482 C94.6519858,7.5141844 94.182695,7.5270922 93.47,7.5270922 C93.1694326,7.5270922 92.6180851,7.51326241 91.8168794,7.48652482 C91.3992199,7.47453901 91.1152482,7.46070922 90.9649645,7.44595745 C90.9686525,6.51106383 91.1576596,5.82787234 91.5264539,5.39453901 C91.8970922,4.96120567 92.3848227,4.74546099 92.9924113,4.74546099 C93.5686525,4.74546099 94.0268794,4.94092199 94.3717021,5.33553191 C94.7146809,5.73014184 94.8870922,6.34971631 94.8870922,7.19056738 C94.8870922,7.2606383 94.8852482,7.35836879 94.8787943,7.48652482 L94.8787943,7.48652482 Z M102.217801,4.24390071 C101.992837,4.24390071 101.77617,4.28539007 101.565035,4.36836879 C101.355745,4.4522695 101.169504,4.5629078 101.009078,4.70212766 C100.915957,4.78326241 100.767518,4.96028369 100.562837,5.2322695 C100.36,5.50609929 100.137801,5.78361702 99.8953191,6.06113475 C99.8999291,5.37241135 99.9100709,4.86255319 99.9275887,4.53524823 C99.9340426,4.48638298 99.9358865,4.44397163 99.9358865,4.40617021 C99.9358865,4.35177305 99.9239007,4.31120567 99.904539,4.28446809 C99.8842553,4.25680851 99.8529078,4.24390071 99.8169504,4.24390071 C99.778227,4.24390071 99.707234,4.27156028 99.6021277,4.32319149 C99.1070213,4.5629078 98.3242553,4.75652482 97.2538298,4.90404255 L97.2538298,5.36503546 C97.8531206,5.35950355 98.1960993,5.37148936 98.2836879,5.40099291 C98.3712766,5.43141844 98.4330496,5.47659574 98.4680851,5.53468085 C98.5003546,5.59368794 98.5234043,5.78269504 98.5326241,6.09893617 C98.5612057,6.59312057 98.5750355,7.05503546 98.5750355,7.48468085 L98.5750355,8.4435461 C98.5750355,8.50900709 98.5612057,9.25765957 98.5326241,10.6922695 C98.5224823,10.9550355 98.4902128,11.1495745 98.4367376,11.2731206 C98.409078,11.3367376 98.3721986,11.3865248 98.3270213,11.4224823 C98.28,11.4575177 98.211773,11.4833333 98.1204965,11.4980851 C98.0716312,11.5091489 97.7406383,11.5192908 97.1330496,11.5303546 L97.1330496,11.9904255 C97.7756738,11.9498582 98.4385816,11.9314184 99.124539,11.9314184 C99.7892908,11.9314184 100.59234,11.9507801 101.537376,11.9904255 L101.537376,11.5303546 C100.827447,11.4833333 100.39227,11.4344681 100.230922,11.3856028 C100.151631,11.3607092 100.093546,11.3265957 100.058511,11.2860284 C100.024397,11.246383 99.9958156,11.179078 99.9755319,11.0878014 C99.9534043,10.9974468 99.9386525,10.7863121 99.9340426,10.4534752 C99.906383,9.51489362 99.8934752,8.87042553 99.8934752,8.51638298 L99.8934752,7.68659574 C99.8934752,7.00524823 100.037305,6.49539007 100.328652,6.15425532 C100.618156,5.81588652 100.973121,5.64439716 101.38617,5.64439716 C101.63234,5.64439716 101.837943,5.70432624 102.001135,5.82049645 C102.165248,5.93851064 102.310922,6.12567376 102.432624,6.3829078 L102.796809,6.3829078 C102.808794,5.84078014 102.853972,5.21382979 102.936028,4.50021277 L102.887163,4.38865248 C102.66773,4.29276596 102.445532,4.24390071 102.217801,4.24390071 L102.217801,4.24390071 Z M108.778652,8.00652482 C108.523262,7.88297872 108.058582,7.73638298 107.382766,7.56489362 L106.049574,7.23574468 C105.796028,7.16106383 105.601489,7.07624113 105.460426,6.98219858 C105.32305,6.88907801 105.209645,6.76829787 105.126667,6.61801418 C105.045532,6.4677305 105.004043,6.28886525 105.004043,6.07957447 C105.004043,5.70617021 105.146028,5.37886525 105.432766,5.10042553 C105.718582,4.8229078 106.100284,4.68276596 106.569574,4.68276596 C106.899645,4.68276596 107.179929,4.72609929 107.409504,4.81184397 C107.636312,4.89666667 107.822553,4.99347518 107.966383,5.1022695 C108.110213,5.21106383 108.214397,5.31524823 108.272482,5.40929078 C108.329645,5.5051773 108.378511,5.61397163 108.412624,5.73659574 C108.446738,5.85921986 108.477163,6.11553191 108.503901,6.50460993 L108.966738,6.50460993 C108.980567,5.88687943 109.007305,5.28021277 109.046028,4.68276596 C108.767589,4.54723404 108.405248,4.43198582 107.960851,4.34070922 C107.51461,4.24851064 107.122766,4.20241135 106.787163,4.20241135 C106.222908,4.20241135 105.702908,4.31304965 105.225319,4.53617021 C104.748652,4.75836879 104.398298,5.04787234 104.174255,5.40283688 C103.952057,5.7587234 103.84234,6.1487234 103.84234,6.57283688 C103.84234,6.86049645 103.894894,7.1306383 103.998156,7.37496454 C104.103262,7.62205674 104.244326,7.8258156 104.420426,7.98624113 C104.596525,8.14758865 104.835319,8.28312057 105.135887,8.39560284 C105.335035,8.46567376 105.773901,8.57815603 106.454326,8.73304965 C107.135674,8.88702128 107.580071,9.01333333 107.786596,9.10921986 C107.991277,9.20602837 108.149858,9.3406383 108.261418,9.51304965 C108.371135,9.68361702 108.425532,9.88092199 108.425532,10.1068085 C108.425532,10.6111348 108.250355,11.0066667 107.894468,11.2961702 C107.541348,11.5838298 107.094184,11.7304255 106.541915,11.7304255 C106.207234,11.7304255 105.957376,11.7193617 105.793262,11.697234 C105.628227,11.6778723 105.466879,11.632695 105.308298,11.5635461 C105.147872,11.4971631 105.002199,11.4040426 104.867589,11.2841844 C104.732979,11.1634043 104.632482,11.0149645 104.567943,10.8425532 C104.503404,10.6682979 104.456383,10.4894326 104.430567,10.3087234 C104.404752,10.1270922 104.38539,9.87907801 104.381702,9.56836879 L103.923475,9.56836879 C103.908723,10.2653901 103.896738,10.722695 103.881064,10.9421277 C103.861702,11.1615603 103.827589,11.3856028 103.777801,11.6151773 C103.76766,11.6695745 103.761206,11.7165957 103.761206,11.7525532 C103.761206,11.7894326 103.771348,11.8161702 103.793475,11.832766 C103.825745,11.8641135 104.052553,11.9212766 104.476667,12.0014894 C105.244681,12.1388652 105.861489,12.2098582 106.324326,12.2098582 C107.326525,12.2098582 108.128652,11.9406383 108.727021,11.4021986 C109.324468,10.8656028 109.625957,10.2349645 109.625957,9.51489362 C109.625957,9.15070922 109.548511,8.84 109.392695,8.57815603 C109.236879,8.32 109.034965,8.12914894 108.778652,8.00652482 L108.778652,8.00652482 Z M112.473972,2.46262411 C112.718298,2.46262411 112.930355,2.37411348 113.107376,2.19801418 C113.281631,2.02191489 113.371064,1.81078014 113.371064,1.56460993 C113.371064,1.31475177 113.283475,1.10085106 113.10922,0.923829787 C112.936809,0.748652482 112.72383,0.660141844 112.474894,0.660141844 C112.225957,0.660141844 112.010213,0.748652482 111.834113,0.923829787 C111.66078,1.09992908 111.571348,1.31382979 111.571348,1.56460993 C111.571348,1.81078014 111.66078,2.02099291 111.834113,2.19801418 C112.009291,2.37503546 112.225035,2.46262411 112.473972,2.46262411 L112.473972,2.46262411 Z M113.490922,11.4224823 C113.447589,11.3874468 113.413475,11.3459574 113.38766,11.2970922 C113.334184,11.1735461 113.303759,10.9771631 113.300071,10.7107092 C113.293617,10.598227 113.277943,9.84496454 113.251206,8.45276596 L113.251206,6.99141844 C113.251206,6.38567376 113.265035,5.51255319 113.291773,4.37205674 L113.117518,4.2448227 C112.41773,4.57765957 111.556596,4.80539007 110.529504,4.92432624 L110.529504,5.38531915 C111.158298,5.38531915 111.513262,5.40468085 111.596241,5.44432624 C111.67922,5.48489362 111.738227,5.5448227 111.768652,5.62503546 C111.823972,5.77439716 111.850709,6.24921986 111.850709,7.04489362 L111.850709,8.45737589 C111.823972,9.92241135 111.810142,10.6913475 111.810142,10.7595745 C111.792624,11.0334043 111.754823,11.2233333 111.698582,11.3293617 C111.663546,11.3837589 111.618369,11.4270922 111.556596,11.4630496 C111.495745,11.4971631 111.406312,11.5174468 111.294752,11.5220567 L110.530426,11.5294326 L110.530426,11.9922695 C111.502199,11.9517021 112.200142,11.9314184 112.627021,11.9314184 C113.111064,11.9314184 113.760142,11.9517021 114.573333,11.9922695 L114.573333,11.5294326 C114.011844,11.5192908 113.714965,11.5128369 113.685461,11.507305 C113.597872,11.4842553 113.535177,11.4565957 113.490922,11.4224823 L113.490922,11.4224823 Z M117.516312,5.60567376 C118.015106,5.60106383 118.404184,5.59737589 118.686312,5.59737589 C118.966596,5.59737589 119.275461,5.60014184 119.611986,5.60567376 L119.777943,4.86163121 L119.722624,4.80446809 C119.585248,4.82843972 119.378723,4.84319149 119.100284,4.85333333 C118.601489,4.86624113 118.32766,4.87269504 118.280638,4.87269504 C118.19305,4.87269504 117.939504,4.87085106 117.516312,4.86531915 C117.587305,3.33851064 117.653688,2.35106383 117.714539,1.90205674 L117.521844,1.74163121 C117.171489,1.96198582 116.715106,2.16851064 116.156383,2.36028369 L116.156383,4.8035461 C115.853972,4.96858156 115.44461,5.15758865 114.932908,5.36595745 L114.932908,5.70340426 C115.262979,5.66283688 115.561702,5.64347518 115.828156,5.64347518 L116.156383,5.64347518 L116.156383,8.98567376 C116.156383,9.08617021 116.151773,9.18205674 116.147163,9.26780142 C116.130567,9.70113475 116.121348,10.1021986 116.115816,10.466383 C116.143475,10.8471631 116.202482,11.1274468 116.297447,11.3044681 C116.391489,11.4805674 116.506738,11.6271631 116.644113,11.7442553 C116.784255,11.8595035 116.936383,11.9489362 117.10234,12.0134752 C117.271064,12.0789362 117.496028,12.1093617 117.777234,12.1093617 C118.006809,12.1093617 118.209645,12.0973759 118.383901,12.0724823 C118.56,12.0503546 118.749007,11.9996454 118.950922,11.9249645 C119.185106,11.7101418 119.428511,11.503617 119.677447,11.3044681 L119.58156,10.9992908 C119.374113,11.0730496 119.204468,11.1209929 119.068014,11.1403546 C118.933404,11.1587943 118.757305,11.1680142 118.538794,11.1680142 C118.252979,11.1311348 118.050142,11.0767376 117.930284,11.0066667 C117.813191,10.9375177 117.716383,10.8443972 117.642624,10.727305 C117.566099,10.6120567 117.517234,10.4765248 117.491418,10.3207092 C117.465603,10.1658156 117.459149,9.68638298 117.474823,8.88609929 L117.516312,5.60567376 L117.516312,5.60567376 Z M127.64617,4.48361702 C127.166738,4.48361702 126.62,4.46425532 125.99766,4.42368794 L125.99766,4.88468085 C126.559149,4.93815603 126.883688,4.99347518 126.966667,5.04971631 C127.050567,5.10780142 127.092979,5.18617021 127.092979,5.28851064 C127.092979,5.35304965 127.080993,5.42865248 127.060709,5.51531915 C126.989716,5.7651773 126.746312,6.4151773 126.326809,7.46624113 C125.906383,8.51822695 125.61227,9.23092199 125.446312,9.60524823 L125.020355,10.5548936 C124.80922,10.0892908 124.55383,9.47985816 124.24773,8.72843972 L123.742482,7.47453901 C123.556241,7.00801418 123.357092,6.44468085 123.147801,5.78453901 C123.055603,5.52361702 123.01227,5.35212766 123.01227,5.26730496 C123.01227,5.13269504 123.081418,5.0377305 123.22156,4.98609929 C123.300851,4.95475177 123.617092,4.91971631 124.170284,4.88468085 L124.170284,4.42368794 C123.585745,4.46425532 122.98,4.48361702 122.346596,4.48361702 C121.697518,4.48361702 121.042908,4.46425532 120.377234,4.42368794 L120.377234,4.88468085 C120.758936,4.92617021 121.006028,4.98056738 121.113901,5.04510638 C121.224539,5.11148936 121.327801,5.24148936 121.425532,5.43510638 C121.665248,5.93021277 121.977801,6.64843972 122.354894,7.59347518 L123.630922,10.7669504 C123.872482,11.3671631 124.074397,11.9111348 124.24773,12.3942553 C124.02461,12.9944681 123.768298,13.582695 123.487092,14.1589362 C123.299007,14.5341844 123.135816,14.7960284 123.001206,14.949078 C122.862908,15.1021277 122.714468,15.2146099 122.558652,15.2856028 C122.399149,15.3575177 122.235957,15.3916312 122.072766,15.3916312 C121.91234,15.3916312 121.790638,15.3768794 121.705816,15.3519858 C121.622837,15.3252482 121.54539,15.2865248 121.472553,15.2358156 C121.399716,15.1841844 121.314894,15.1168794 121.211631,15.0311348 L121.018936,15.0311348 L120.609574,16.2721277 C120.784752,16.3670922 120.943333,16.4343972 121.088085,16.4749645 C121.230071,16.512766 121.389574,16.5321277 121.567518,16.5321277 C121.93078,16.5321277 122.267305,16.4546809 122.573404,16.2997872 C122.87766,16.1467376 123.140426,15.9208511 123.36078,15.6239716 C123.579291,15.3261702 123.839291,14.8292199 124.139858,14.1349645 L125.999504,9.78134752 C126.821915,7.97609929 127.383404,6.76553191 127.686738,6.14780142 C127.989149,5.53099291 128.215957,5.16865248 128.366241,5.06078014 C128.516525,4.9529078 128.72766,4.89297872 129.000567,4.88375887 L129.081702,4.42276596 C128.605035,4.46425532 128.129291,4.48361702 127.64617,4.48361702 L127.64617,4.48361702 Z" id="Shape"></path>
            </g>
        </g>
    </g>
</svg>