<svg version="1.1" xmlns="http://www.w3.org/2000/svg" xmlns:xlink="http://www.w3.org/1999/xlink" x="0px" y="0px"
	 width="400px" height="115px" xml:space="preserve">
<g>
	<path fill="#FFFFFF" d="M149.226,68.665c-1.854,1.119-5.019,1.726-6.968,1.726c-7.673,0-12.852-4.381-12.852-11.637
		c0-3.675,1.438-6.586,3.9-8.599c2.397-1.981,5.658-3.069,9.239-3.069c2.974,0,5.851,0.769,7.384,1.312
		c-0.319,1.502-0.606,3.195-0.606,4.859h-0.991v-2.303c0-0.895-1.279-1.438-2.749-1.981c-1.023-0.351-2.398-0.543-3.581-0.543
		c-6.01,0-9.175,4.379-9.175,9.813c0,6.33,4.188,10.422,10.518,10.422c2.302,0,5.02-0.83,6.49-1.917l0.288,0.319L149.226,68.665z"/>
	<path fill="#FFFFFF" d="M151.271,62.911c0-4.796,3.005-8.152,8.151-8.152c4.093,0,7.257,3.196,7.257,7.288
		c0,4.89-3.484,8.344-8.375,8.344C154.277,70.52,151.271,67.323,151.271,62.911z M154.245,61.536c0,3.355,1.215,7.801,5.307,7.801
		c2.909,0,4.157-2.911,4.157-5.883c0-4.124-1.951-7.64-5.02-7.64C155.299,55.814,154.245,58.562,154.245,61.536z"/>
	<path fill="#FFFFFF" d="M169.909,59.297c0-1.023-0.064-1.726-0.224-1.981c-0.192-0.256-0.512-0.352-1.183-0.352h-1.182V56.07
		c1.886-0.192,3.804-0.799,4.988-1.311l0.287,0.128v3.228h0.064l1.727-2.045c0.767-0.927,1.853-1.311,2.684-1.311
		c0.544,0,1.216,0.16,1.471,0.352l-0.287,3.834h-0.672c-0.352-0.767-1.023-1.47-2.173-1.47c-1.408,0-2.814,1.47-2.814,3.518v5.496
		c0,0.866,0.033,1.505,0.161,1.857c0.127,0.286,0.607,0.415,1.342,0.446l1.662,0.097v0.959c-1.662-0.032-2.941-0.097-4.508-0.097
		c-1.566,0-2.845,0.064-3.995,0.097V68.89l1.47-0.097c0.544-0.031,0.896-0.16,1.023-0.446c0.128-0.353,0.16-0.991,0.16-1.857V59.297
		z"/>
	<path fill="#FFFFFF" d="M184.87,66.489c0,0.866,0.032,1.505,0.16,1.857c0.128,0.286,0.479,0.415,1.023,0.446l1.438,0.097v0.959
		c-1.118-0.032-2.397-0.097-3.964-0.097s-2.845,0.064-3.964,0.097V68.89l1.438-0.097c0.543-0.031,0.895-0.16,1.023-0.446
		c0.126-0.353,0.159-0.991,0.159-1.857v-7.192c0-1.023-0.064-1.726-0.224-1.981c-0.192-0.256-0.512-0.352-1.184-0.352h-1.182V56.07
		c1.886-0.192,3.804-0.799,4.986-1.311l0.288,0.128v2.716h0.063l2.366-2.045c0.704-0.608,1.311-0.799,2.59-0.799
		c3.741,0,5.274,2.077,5.274,5.563v6.167c0,0.866,0.032,1.505,0.16,1.857c0.128,0.286,0.48,0.415,1.023,0.446l1.311,0.097v0.959
		c-0.799-0.032-1.726-0.097-2.621-0.097c-0.896,0-1.823,0.064-2.558,0.097V60.77c0-2.655-1.502-4.061-3.676-4.061
		c-1.95,0-3.932,1.694-3.932,3.004V66.489z"/>
	<path fill="#FFFFFF" d="M211.819,60.609c0,0.447,0,0.894-0.064,1.342c-1.918,0.32-3.867,0.447-5.786,0.447h-4.667
		c0,3.739,1.854,6.299,5.786,6.299c1.533,0,2.749-0.768,3.964-1.502l0.415,0.319l-0.64,1.086c-0.224,0.385-2.939,1.79-5.114,1.79
		c-4.827,0-7.384-3.067-7.384-7.384c0-3.101,0.831-4.956,2.301-6.106c0.607-0.479,1.279-0.959,1.983-1.279
		c1.117-0.511,2.045-0.863,3.132-0.863C209.229,54.759,211.819,56.997,211.819,60.609z M201.365,61.12
		c2.621,0.289,5.307,0.225,7.609,0.097c0-2.974-1.087-5.402-3.39-5.402C203.123,55.814,201.205,57.635,201.365,61.12z"/>
	<path fill="#FFFFFF" d="M215.016,49.932c0-0.735-0.096-1.311-0.799-1.311h-1.791v-0.895c1.695-0.255,3.39-0.543,4.988-1.184
		l0.286,0.256v19.691c0,0.866,0.032,1.505,0.161,1.857c0.128,0.286,0.479,0.415,1.022,0.446l1.472,0.097v0.959
		c-1.152-0.032-2.431-0.097-3.997-0.097c-1.567,0-2.846,0.064-3.997,0.097V68.89l1.473-0.097c0.542-0.031,0.895-0.16,1.021-0.446
		c0.129-0.353,0.161-0.991,0.161-1.857V49.932z"/>
	<path fill="#FFFFFF" d="M224.478,49.932c0-0.735-0.096-1.311-0.799-1.311h-1.791v-0.895c1.695-0.255,3.39-0.543,4.988-1.184
		l0.287,0.256v19.691c0,0.866,0.031,1.505,0.16,1.857c0.128,0.286,0.479,0.415,1.022,0.446l1.47,0.097v0.959
		c-1.149-0.032-2.429-0.097-3.995-0.097c-1.565,0-2.846,0.064-3.995,0.097V68.89l1.47-0.097c0.543-0.031,0.896-0.16,1.022-0.446
		c0.128-0.353,0.16-0.991,0.16-1.857V49.932z"/>
	<path fill="#FFFFFF" d="M239.759,51.561c0-1.214-0.064-2.046-0.288-2.397c-0.191-0.319-0.576-0.447-1.342-0.479l-1.535-0.096V47.63
		c1.661,0.064,3.165,0.096,4.729,0.096c1.473,0,2.975-0.032,4.637-0.096v0.959l-1.534,0.096c-0.768,0.032-1.15,0.16-1.344,0.479
		c-0.223,0.351-0.286,1.183-0.286,2.397V62.56c0,4.537,2.364,5.851,6.585,5.851c3.452,0,6.585-1.313,6.585-6.618V51.561
		c0-1.214-0.063-2.046-0.288-2.397c-0.191-0.319-0.574-0.416-1.343-0.479l-1.405-0.096l-0.001-0.959
		c1.278,0.032,2.558,0.096,3.709,0.096c1.278,0,2.429-0.064,3.837-0.096v0.959l-1.408,0.096c-0.767,0.063-1.15,0.16-1.342,0.479
		c-0.225,0.351-0.289,1.183-0.289,2.397v9.241c0,6.841-2.588,9.589-9.047,9.589c-5.434,0-8.63-1.629-8.63-7.479V51.561z"/>
	<path fill="#FFFFFF" d="M264.663,66.489c0,0.866,0.031,1.505,0.159,1.857c0.127,0.286,0.479,0.415,1.022,0.446l1.438,0.097v0.959
		c-1.119-0.032-2.397-0.097-3.963-0.097c-1.567,0-2.846,0.064-3.965,0.097V68.89l1.438-0.097c0.544-0.031,0.896-0.16,1.023-0.446
		c0.128-0.353,0.16-0.991,0.16-1.857v-7.192c0-1.023-0.064-1.726-0.224-1.981c-0.191-0.256-0.511-0.352-1.183-0.352h-1.183V56.07
		c1.887-0.192,3.804-0.799,4.986-1.311l0.289,0.128v2.716h0.062l2.367-2.045c0.701-0.608,1.31-0.799,2.588-0.799
		c3.74,0,5.275,2.077,5.275,5.563v6.167c0,0.866,0.032,1.505,0.159,1.857c0.128,0.286,0.48,0.415,1.024,0.446l1.31,0.097v0.959
		c-0.801-0.032-1.727-0.097-2.621-0.097s-1.822,0.064-2.558,0.097V60.77c0-2.655-1.502-4.061-3.677-4.061
		c-1.95,0-3.931,1.694-3.931,3.004V66.489z"/>
	<path fill="#FFFFFF" d="M284.418,66.489c0,0.866,0.031,1.505,0.161,1.857c0.127,0.286,0.479,0.415,1.022,0.446l1.47,0.097v0.959
		c-1.151-0.032-2.429-0.097-3.996-0.097c-1.566,0-2.845,0.064-3.996,0.097V68.89l1.471-0.097c0.543-0.031,0.896-0.16,1.022-0.446
		c0.129-0.353,0.16-0.991,0.16-1.857v-7.192c0-1.023-0.063-1.726-0.224-1.981c-0.191-0.256-0.512-0.352-1.182-0.352h-1.184V56.07
		c1.886-0.192,3.805-0.799,4.985-1.311l0.289,0.128V66.489z M284.706,49.58c0,0.926-0.863,1.757-1.79,1.757
		c-0.928,0-1.759-0.832-1.759-1.757c0-0.927,0.831-1.79,1.759-1.79C283.843,47.791,284.706,48.653,284.706,49.58z"/>
	<path fill="#FFFFFF" d="M297.109,66.489c-0.544,1.186-0.863,2.4-1.312,3.486H294.2l-5.499-12.883
		c-0.191-0.448-0.384-1.023-0.992-1.055l-1.086-0.064v-0.895c1.247,0.032,2.494,0.096,3.74,0.096c1.247,0,2.462-0.063,3.709-0.096
		v0.895l-1.565,0.064c-0.833,0.032-1.056,0.479-0.513,1.822l3.804,9.208c0.672-1.473,1.375-2.975,1.982-4.477l1.343-3.389
		c0.862-2.205,0.8-3.132-0.16-3.164l-1.311-0.064v-0.895c0.991,0.032,2.014,0.096,3.005,0.096c0.99,0,2.015-0.063,3.005-0.096v0.895
		l-0.99,0.064c-0.8,0.064-1.343,1.183-1.79,2.141L297.109,66.489z"/>
	<path fill="#FFFFFF" d="M316.897,60.609c0,0.447,0,0.894-0.064,1.342c-1.918,0.32-3.868,0.447-5.785,0.447h-4.667
		c0,3.739,1.853,6.299,5.786,6.299c1.533,0,2.748-0.768,3.964-1.502l0.415,0.319l-0.639,1.086c-0.225,0.385-2.942,1.79-5.116,1.79
		c-4.827,0-7.385-3.067-7.385-7.384c0-3.101,0.832-4.956,2.303-6.106c0.606-0.479,1.278-0.959,1.981-1.279
		c1.119-0.511,2.046-0.863,3.133-0.863C314.309,54.759,316.897,56.997,316.897,60.609z M306.442,61.12
		c2.623,0.289,5.31,0.225,7.609,0.097c0-2.974-1.087-5.402-3.388-5.402C308.202,55.814,306.283,57.635,306.442,61.12z"/>
	<path fill="#FFFFFF" d="M321.213,59.297c0-1.023-0.063-1.726-0.224-1.981c-0.192-0.256-0.512-0.352-1.183-0.352h-1.184V56.07
		c1.887-0.192,3.805-0.799,4.987-1.311l0.288,0.128v3.228h0.063l1.728-2.045c0.767-0.927,1.854-1.311,2.684-1.311
		c0.544,0,1.216,0.16,1.471,0.352l-0.288,3.834h-0.671c-0.352-0.767-1.022-1.47-2.173-1.47c-1.407,0-2.813,1.47-2.813,3.518v5.496
		c0,0.866,0.03,1.505,0.16,1.857c0.127,0.286,0.606,0.415,1.344,0.446l1.661,0.097v0.959c-1.661-0.032-2.942-0.097-4.508-0.097
		c-1.566,0-2.847,0.064-3.996,0.097V68.89l1.471-0.097c0.544-0.031,0.895-0.16,1.022-0.446c0.128-0.353,0.16-0.991,0.16-1.857
		V59.297z"/>
	<path fill="#FFFFFF" d="M332.146,65.18v1.31c0,1.984,2.271,2.72,4.123,2.72c2.014,0,3.743-1.183,3.743-2.911
		c0-1.023-0.546-1.854-1.537-2.109c-1.406-0.352-3.164-0.704-4.697-1.277c-1.537-0.575-2.719-1.534-2.719-3.486
		c0-3.452,3.006-4.666,6.01-4.666c1.503,0,2.877,0.352,4.126,0.799c-0.098,1.15-0.13,2.333-0.16,3.61h-0.896v-0.734
		c0-1.662-1.886-2.62-3.708-2.62c-2.716,0-3.133,1.501-3.133,2.588c0,1.375,1.054,2.111,3.483,2.527
		c3.807,0.639,5.596,1.597,5.596,4.09c0,3.519-3.516,5.371-7.065,5.371c-1.533,0-2.909-0.224-4.477-0.767
		c0.32-1.406,0.351-2.942,0.351-4.444H332.146z"/>
	<path fill="#FFFFFF" d="M349.441,66.489c0,0.866,0.032,1.505,0.16,1.857c0.127,0.286,0.479,0.415,1.021,0.446l1.471,0.097v0.959
		c-1.15-0.032-2.429-0.097-3.994-0.097c-1.569,0-2.848,0.064-3.998,0.097V68.89l1.47-0.097c0.544-0.031,0.896-0.16,1.024-0.446
		c0.126-0.353,0.158-0.991,0.158-1.857v-7.192c0-1.023-0.062-1.726-0.224-1.981c-0.19-0.256-0.51-0.352-1.183-0.352h-1.182V56.07
		c1.885-0.192,3.803-0.799,4.986-1.311l0.289,0.128V66.489z M349.729,49.58c0,0.926-0.864,1.757-1.791,1.757
		s-1.759-0.832-1.759-1.757c0-0.927,0.832-1.79,1.759-1.79S349.729,48.653,349.729,49.58z"/>
	<path fill="#FFFFFF" d="M352.797,57.667v-0.671l2.493-1.119v-2.239c0-0.831-0.033-1.663-0.129-2.525
		c1.152-0.352,2.174-0.863,2.72-1.214l0.383,0.352c-0.19,1.406-0.354,3.197-0.354,4.541v1.214l4.381-0.191l-0.288,1.725h-4.093
		v8.374c0,1.475,0.418,2.209,1.76,2.209c0.832,0,1.438-0.352,1.886-0.607l0.415,0.544l-1.534,1.693
		c-0.287,0.319-1.406,0.383-2.077,0.383c-1.694,0-3.134-0.798-3.134-3.387V57.54L352.797,57.667z"/>
	<path fill="#FFFFFF" d="M376.453,57.667c0.479-1.183,0-1.534-1.15-1.63l-0.832-0.064v-0.895c1.023,0.032,2.013,0.096,3.036,0.096
		c1.024,0,2.017-0.063,3.038-0.096v0.895l-0.896,0.064c-0.767,0.064-1.471,1.055-2.686,3.869l-6.489,14.962
		c-1.023,2.332-2.174,3.931-4.857,3.931c-0.545,0-1.249-0.257-1.6-0.48l0.767-2.396h0.417c0.384,0.384,1.183,0.767,1.63,0.734
		c1.854-0.129,2.876-2.72,3.483-4.189l0.734-1.948c-0.542-1.504-1.182-3.072-1.789-4.542l-3.483-8.374
		c-0.512-1.214-0.961-1.501-1.663-1.566l-0.575-0.064v-0.895c1.246,0.032,2.463,0.096,3.708,0.096c1.247,0,2.461-0.063,3.708-0.096
		v0.895l-1.215,0.064c-0.895,0.032-1.438,0.352-0.768,2.077l2.045,5.37c0.449,1.216,0.963,2.366,1.633,3.517L376.453,57.667z"/>
</g>
<g>
	<g>
		<path fill="#FFFFFF" d="M62.602,104.073c-25.192,0-45.687-20.497-45.687-45.69c0-25.192,20.495-45.688,45.687-45.688
			c25.193,0,45.69,20.495,45.69,45.688C108.292,83.576,87.795,104.073,62.602,104.073z M62.602,14.829
			c-24.015,0-43.553,19.538-43.553,43.554c0,24.017,19.538,43.556,43.553,43.556c24.017,0,43.556-19.539,43.556-43.556
			C106.158,34.367,86.619,14.829,62.602,14.829z"/>
	</g>
	<g>
		<path fill="#FFFFFF" d="M62.602,92.7c-18.921,0-34.314-15.395-34.314-34.317c0-18.921,15.394-34.315,34.314-34.315
			c18.922,0,34.317,15.394,34.317,34.315C96.918,77.306,81.524,92.7,62.602,92.7z M62.602,26.188
			c-17.752,0-32.194,14.442-32.194,32.195c0,17.754,14.442,32.198,32.194,32.198c17.753,0,32.197-14.444,32.197-32.198
			C94.798,40.63,80.355,26.188,62.602,26.188z"/>
	</g>
	<g>
		<path fill="#FFFFFF" d="M62.616,90.43l-0.425-0.183c-0.874-0.375-21.414-9.376-21.414-25.686l0.003-29.3l43.615-0.004
			l0.004,29.822c0,15.638-20.487,24.783-21.359,25.165L62.616,90.43z M42.913,37.395L42.91,64.562
			c0,13.679,16.791,22.165,19.698,23.53c2.902-1.383,19.656-9.94,19.656-23.013L82.26,37.391L42.913,37.395z"/>
	</g>
	<g>
		<path fill="#FFFFFF" d="M52.981,52.417l-0.52-0.304c-0.094-0.055-2.325-1.363-3.822-2.366c-1.264-0.845-1.912-1.741-1.981-2.738
			c-0.015-0.209-0.015-4.192-0.011-7.5l0.001-1.066h12.766l0.002,1.064c0.011,4.815,0.01,7.337-0.003,7.497
			c-0.03,1.018-0.646,1.917-1.883,2.744c-1.508,1.011-3.917,2.326-4.02,2.381L52.981,52.417z M48.779,40.577
			c-0.001,2.705-0.001,6.039,0.007,6.291c0.015,0.205,0.295,0.608,1.04,1.106c1.018,0.683,2.437,1.54,3.191,1.989
			c0.793-0.443,2.307-1.306,3.325-1.988c0.279-0.187,0.926-0.659,0.938-1.039l0.005-0.106c0.007-0.232,0.004-3.556-0.001-6.252
			H48.779z"/>
	</g>
	<g>
		<path fill="#FFFFFF" d="M72.706,52.366l-0.52-0.304c-0.094-0.055-2.322-1.361-3.816-2.364c-1.264-0.846-1.914-1.742-1.983-2.737
			c-0.014-0.165-0.018-2.687-0.012-7.502l0.001-1.065H79.14l0.002,1.064c0.011,4.815,0.01,7.338-0.003,7.499
			c-0.022,1.008-0.637,1.911-1.879,2.743c-1.511,1.012-3.923,2.325-4.025,2.38L72.706,52.366z M68.507,40.526
			c-0.002,2.698-0.002,6.026,0.007,6.288c0.015,0.208,0.297,0.611,1.043,1.111c1.016,0.683,2.432,1.538,3.186,1.987
			c0.793-0.442,2.309-1.304,3.328-1.987c0.278-0.186,0.926-0.66,0.935-1.035l0.005-0.11c0.007-0.232,0.004-3.557-0.001-6.254H68.507
			z"/>
	</g>
	<g>
		<rect x="40.943" y="53.171" fill="#FFFFFF" width="42.688" height="2.112"/>
	</g>
	<g>
		<path fill="#FFFFFF" d="M62.546,79.154c-0.72,0-1.13-0.507-1.351-0.779c-0.242-0.299-0.361-0.384-0.752-0.39
			c-1.161,0-2.014,0.077-3,0.166c-0.965,0.088-2.059,0.188-3.615,0.223c-1.542,0.035-2.737-0.029-2.787-0.032l-1.007-0.057
			l0.002-19.994l1.043-0.024c0.321-0.008,0.689-0.007,1.122-0.006c0.613,0.001,1.367,0.002,2.314-0.021
			c0.726-0.017,1.573-0.107,2.554-0.212c0.576-0.062,1.194-0.127,1.861-0.187c1.375-0.155,2.625,0.1,2.678,0.111
			c0.381,0.089,0.704,0.212,0.976,0.349c0.264-0.134,0.581-0.254,0.96-0.343c0.077-0.016,1.326-0.273,2.727-0.113
			c0.645,0.057,1.266,0.123,1.845,0.185c0.978,0.104,1.823,0.195,2.541,0.211c0.948,0.023,1.703,0.023,2.317,0.021
			c0.436,0,0.801-0.001,1.122,0.006l1.042,0.024l0.003,19.994l-1.008,0.057c-0.05,0.002-1.244,0.067-2.786,0.032
			c-1.555-0.035-2.649-0.135-3.614-0.223c-1.003-0.091-1.869-0.167-3.061-0.166c-0.417,0-0.533,0.133-0.787,0.425
			C63.644,78.688,63.239,79.154,62.546,79.154z M60.443,75.851c0.022,0,0.045,0,0.067,0c1.052,0.002,1.677,0.459,2.053,0.848
			c0.395-0.393,1.03-0.846,2.106-0.848c1.311,0.017,2.245,0.084,3.257,0.176c0.977,0.089,1.987,0.181,3.471,0.215
			c0.612,0.014,1.169,0.011,1.61,0.003l-0.002-15.849c-0.128,0.004-0.267,0-0.41,0c-0.554,0-1.206-0.003-1.989-0.021
			c-0.806-0.019-1.691-0.113-2.717-0.223c-0.566-0.061-1.176-0.126-1.833-0.184c-1.078-0.124-2.045,0.071-2.054,0.074
			c-0.556,0.131-0.729,0.358-0.735,0.368l-0.599-0.352l-0.685,0.396c0,0.001,0.001,0.002,0.001,0.002
			c-0.005,0-0.234-0.278-0.838-0.42l0,0c-0.003,0.001-0.962-0.186-2.001-0.071c-0.679,0.061-1.285,0.126-1.849,0.186
			c-1.029,0.11-1.917,0.205-2.73,0.224c-0.969,0.022-1.738,0.021-2.367,0.021c-0.009,0-0.019,0-0.028,0l-0.002,15.849
			c0.443,0.008,1.001,0.011,1.611-0.003c1.484-0.034,2.494-0.126,3.471-0.215C58.245,75.937,59.186,75.851,60.443,75.851z"/>
	</g>
	<g>
		<rect x="47.718" y="42.614" fill="#FFFFFF" width="10.553" height="1.775"/>
	</g>
	<g>
		<rect x="47.718" y="42.435" fill="#FFFFFF" width="10.553" height="2.134"/>
	</g>
	<g>
		<rect x="61.628" y="53.549" fill="#FFFFFF" width="1.775" height="35.897"/>
	</g>
	<g>
		<rect x="61.716" y="53.549" fill="#FFFFFF" width="1.6" height="35.897"/>
	</g>
	<g>
		<polygon fill="#FFFFFF" points="77.252,46.467 72.564,43.341 68.263,46.448 67.223,45.009 72.524,41.18 78.237,44.99 		"/>
	</g>
	<g>
		<polygon fill="#FFFFFF" points="77.301,46.616 72.715,43.559 68.518,46.593 67.268,44.864 72.667,40.961 78.485,44.841 		"/>
	</g>
	<g>
		<path fill="#FFFFFF" d="M71.004,63.606c-0.303-0.006-1.172-0.03-1.947-0.053l-0.742-0.021c-0.427-0.01-0.918-0.062-1.486-0.123
			c-0.281-0.03-0.583-0.062-0.905-0.093c-0.17-0.019-0.328-0.021-0.468-0.015l-0.046-1.121c0.191-0.01,0.405-0.005,0.625,0.02
			c0.321,0.029,0.628,0.062,0.915,0.094c0.532,0.057,0.992,0.107,1.395,0.117l0.744,0.021c0.772,0.021,1.638,0.046,1.94,0.053
			L71.004,63.606z"/>
	</g>
	<g>
		<path fill="#FFFFFF" d="M71.005,67.025l-2.686-0.067c-0.422-0.01-0.903-0.06-1.456-0.118c-0.291-0.031-0.603-0.064-0.938-0.095
			c-0.176-0.019-0.335-0.024-0.476-0.02l-0.033-1.121c0.191-0.01,0.402,0,0.622,0.024c0.33,0.029,0.647,0.063,0.944,0.095
			c0.518,0.056,0.968,0.104,1.362,0.113l2.683,0.067L71.005,67.025z"/>
	</g>
	<g>
		<path fill="#FFFFFF" d="M71.008,70.451c-0.219-0.003-0.733-0.017-1.293-0.033l-1.396-0.037c-0.417-0.008-0.895-0.058-1.445-0.116
			c-0.293-0.031-0.608-0.065-0.948-0.096c-0.171-0.017-0.332-0.021-0.473-0.018l-0.04-1.121c0.191-0.008,0.401-0.001,0.62,0.021
			c0.339,0.03,0.66,0.064,0.96,0.097c0.513,0.055,0.958,0.104,1.349,0.111l1.404,0.037c0.554,0.016,1.062,0.029,1.279,0.033
			L71.008,70.451z"/>
	</g>
	<g>
		<path fill="#FFFFFF" d="M71.005,73.876c-0.388-0.007-1.703-0.042-2.561-0.064l-0.128-0.004c-0.418-0.01-0.896-0.061-1.446-0.118
			c-0.293-0.031-0.607-0.065-0.945-0.096c-0.174-0.02-0.335-0.024-0.473-0.02l-0.04-1.121c0.192-0.009,0.405,0,0.625,0.024
			c0.333,0.03,0.653,0.063,0.951,0.096c0.516,0.055,0.963,0.104,1.355,0.113l0.129,0.003c0.855,0.022,2.166,0.058,2.553,0.065
			L71.005,73.876z"/>
	</g>
	<g>
		<path fill="#FFFFFF" d="M54.121,63.577l-0.024-1.121c0.396-0.009,1.75-0.045,2.603-0.067c0.497-0.01,0.965-0.062,1.508-0.12
			c0.277-0.03,0.574-0.062,0.891-0.092c0.195-0.021,0.395-0.032,0.572-0.024l-0.014,1.121c-0.144-0.003-0.292,0.004-0.448,0.02
			c-0.317,0.03-0.608,0.062-0.881,0.091c-0.575,0.062-1.072,0.116-1.521,0.124C55.875,63.533,54.518,63.569,54.121,63.577z"/>
	</g>
	<g>
		<path fill="#FFFFFF" d="M54.121,67.002l-0.024-1.121l2.687-0.069c0.403-0.011,0.863-0.062,1.396-0.119
			c0.286-0.03,0.592-0.063,0.92-0.095c0.211-0.017,0.41-0.023,0.589-0.016l-0.048,1.121c-0.138-0.006-0.291,0.001-0.446,0.013
			c-0.313,0.029-0.613,0.062-0.894,0.093c-0.568,0.062-1.059,0.113-1.49,0.124L54.121,67.002z"/>
	</g>
	<g>
		<path fill="#FFFFFF" d="M54.115,70.421L54.102,69.3c0.408-0.005,1.835-0.046,2.679-0.07c0.396-0.005,0.855-0.054,1.386-0.11
			c0.29-0.03,0.601-0.063,0.935-0.093c0.186-0.023,0.386-0.029,0.569-0.023l-0.014,1.121c-0.137-0.001-0.286-0.001-0.438,0.018
			c-0.345,0.031-0.649,0.063-0.934,0.094c-0.559,0.06-1.042,0.11-1.481,0.115C55.963,70.375,54.526,70.416,54.115,70.421z"/>
	</g>
	<g>
		<path fill="#FFFFFF" d="M54.116,73.851l-0.016-1.121c0.385-0.006,1.674-0.042,2.528-0.065l0.152-0.004
			c0.411-0.01,0.876-0.062,1.417-0.12c0.28-0.03,0.58-0.063,0.9-0.094c0.191-0.021,0.39-0.025,0.57-0.021l-0.014,1.121
			c-0.138,0.001-0.289-0.001-0.441,0.017c-0.324,0.031-0.619,0.062-0.894,0.093c-0.577,0.062-1.074,0.116-1.509,0.126l-0.15,0.005
			C55.801,73.81,54.503,73.846,54.116,73.851z"/>
	</g>
	<g>
		<g>
			<rect x="47.94" y="61.136" fill="#FFFFFF" width="2.323" height="2.552"/>
		</g>
		<g>
			<rect x="47.94" y="67.037" fill="#FFFFFF" width="2.448" height="2.554"/>
		</g>
		<g>
			<rect x="47.94" y="72.317" fill="#FFFFFF" width="2.323" height="2.543"/>
		</g>
		<g>
			<rect x="74.688" y="61.641" fill="#FFFFFF" width="2.324" height="2.546"/>
		</g>
		<g>
			<rect x="74.688" y="67.54" fill="#FFFFFF" width="2.448" height="2.551"/>
		</g>
		<g>
			<rect x="74.688" y="72.816" fill="#FFFFFF" width="2.324" height="2.549"/>
		</g>
		<g>
			<g>
				<g>
					<path fill="#FFFFFF" d="M26.739,53.992c0.079,0.45,0.137,0.932,0.107,1.393c-0.124,1.961-1.204,3.261-3.28,3.13
						c-2.104-0.132-3.201-1.475-3.075-3.528c0.027-0.4,0.139-0.923,0.341-1.356l1.034,0.152c-0.294,0.445-0.382,0.855-0.408,1.29
						c-0.078,1.249,0.839,2.09,2.1,2.17c1.25,0.08,2.237-0.629,2.318-1.919c0.031-0.476-0.041-1.047-0.171-1.342L26.739,53.992z"/>
				</g>
			</g>
			<g>
				<g>
					<path fill="#FFFFFF" d="M21.932,47.288c0.519-1.832,2.065-2.502,3.856-1.993c1.79,0.505,2.789,1.889,2.264,3.733
						c-0.532,1.873-2.074,2.503-3.89,1.989C22.346,50.5,21.403,49.147,21.932,47.288z M27.121,48.763
						c0.34-1.195-0.611-1.946-1.68-2.249c-1.044-0.298-2.248-0.124-2.579,1.04c-0.329,1.161,0.604,1.942,1.647,2.237
						C25.576,50.097,26.78,49.96,27.121,48.763z"/>
				</g>
			</g>
			<g>
				<g>
					<path fill="#FFFFFF" d="M24.377,40.923l0.618-1.158c0.61-1.152,1.302-2.547,2.813-1.743c0.637,0.34,0.942,1.045,0.672,1.775
						l0.014,0.012c0.179-0.282,0.566-0.292,0.865-0.271l2.581,0.271l-0.636,1.197l-2.039-0.259
						c-0.488-0.062-0.717-0.007-0.958,0.444l-0.183,0.347l2.255,1.203l-0.572,1.075L24.377,40.923z M27.267,41.083l0.189-0.354
						c0.283-0.528,0.528-1.178-0.15-1.537c-0.654-0.349-1.027,0.223-1.313,0.758l-0.188,0.353L27.267,41.083z"/>
				</g>
			</g>
			<g>
				<g>
					<path fill="#FFFFFF" d="M28.536,33.893l0.956-1.15l5.018,1.156l0.012-0.013l-3.542-2.937l0.742-0.898l4.738,3.929l-0.949,1.144
						l-5.025-1.151l-0.01,0.014l3.542,2.939l-0.745,0.895L28.536,33.893z"/>
				</g>
			</g>
			<g>
				<g>
					<path fill="#FFFFFF" d="M34.701,27.208l2.775-2.259l0.613,0.751l-1.835,1.491l0.958,1.178L38.892,27l0.613,0.751l-1.681,1.369
						l1.092,1.341l1.847-1.504l0.611,0.752l-2.791,2.272L34.701,27.208z"/>
				</g>
			</g>
			<g>
				<g>
					<path fill="#FFFFFF" d="M40.739,22.77l1.062-0.6l2.542,4.518l2.052-1.155l0.476,0.847l-3.116,1.751L40.739,22.77z"/>
				</g>
			</g>
			<g>
				<g>
					<path fill="#FFFFFF" d="M46.988,19.636l1.146-0.415l1.763,4.872l2.215-0.799l0.333,0.911l-3.362,1.217L46.988,19.636z"/>
				</g>
			</g>
			<g>
				<g>
					<path fill="#FFFFFF" d="M56.798,16.962l1.215-0.102l0.291,3.544c0.086,1.042,0.474,1.704,1.403,1.626
						c0.925-0.076,1.197-0.791,1.11-1.833l-0.294-3.546l1.215-0.1l0.325,3.919c0.137,1.644-0.726,2.396-2.278,2.527
						c-1.548,0.127-2.525-0.473-2.662-2.116L56.798,16.962z"/>
				</g>
			</g>
			<g>
				<g>
					<path fill="#FFFFFF" d="M65.915,16.652l1.482,0.201l1.676,4.871l0.019,0.003l0.613-4.563l1.156,0.157l-0.824,6.097
						l-1.473-0.198l-1.685-4.871l-0.018-0.001l-0.613,4.558l-1.156-0.154L65.915,16.652z"/>
				</g>
			</g>
			<g>
				<g>
					<path fill="#FFFFFF" d="M74.637,18.323l1.161,0.364l-1.842,5.872l-1.162-0.365L74.637,18.323z"/>
				</g>
			</g>
			<g>
				<g>
					<path fill="#FFFFFF" d="M78.965,19.779l1.165,0.591l-0.791,5.013l0.016,0.008l3.554-3.616l1.078,0.542l-4.6,4.571l-1.334-0.674
						L78.965,19.779z"/>
				</g>
			</g>
			<g>
				<g>
					<path fill="#FFFFFF" d="M86.943,24.319l2.822,2.209l-0.595,0.762l-1.863-1.456l-0.934,1.195l1.704,1.334l-0.596,0.765
						l-1.705-1.335l-1.065,1.362l1.877,1.468l-0.596,0.763l-2.836-2.217L86.943,24.319z"/>
				</g>
			</g>
			<g>
				<g>
					<path fill="#FFFFFF" d="M92.609,29.189l0.866,0.985c0.861,0.982,1.92,2.122,0.635,3.252c-0.543,0.476-1.31,0.511-1.9,0.001
						l-0.015,0.009c0.2,0.266,0.075,0.631-0.05,0.901l-1.168,2.32l-0.895-1.019l0.962-1.817c0.229-0.433,0.261-0.666-0.079-1.05
						l-0.256-0.295l-1.923,1.684l-0.804-0.914L92.609,29.189z M91.437,31.836l0.264,0.302c0.394,0.45,0.915,0.909,1.491,0.401
						c0.558-0.487,0.156-1.038-0.246-1.495l-0.265-0.301L91.437,31.836z"/>
				</g>
			</g>
			<g>
				<g>
					<path fill="#FFFFFF" d="M98.354,38.946c-0.052-0.415-0.184-0.831-0.401-1.197c-0.212-0.359-0.645-0.727-1.222-0.389
						c-0.921,0.544,0.823,2.605-0.953,3.655c-1.16,0.687-2.138,0.041-2.76-1.013c-0.337-0.57-0.412-0.869-0.59-1.459l1.015-0.472
						c0.016,0.478,0.132,0.966,0.372,1.375c0.237,0.399,0.754,0.809,1.232,0.523c1.013-0.595-0.762-2.637,0.992-3.674
						c1.183-0.7,2.152-0.049,2.696,0.87c0.264,0.448,0.452,0.903,0.549,1.359L98.354,38.946z"/>
				</g>
			</g>
			<g>
				<g>
					<path fill="#FFFFFF" d="M101.05,42.009l0.462,1.128l-5.701,2.324l-0.458-1.126L101.05,42.009z"/>
				</g>
			</g>
			<g>
				<g>
					<path fill="#FFFFFF" d="M102.109,48.101l-0.417-1.689l0.943-0.23l1.123,4.561l-0.942,0.23l-0.416-1.689l-5.034,1.239
						l-0.291-1.183L102.109,48.101z"/>
				</g>
			</g>
			<g>
				<g>
					<path fill="#FFFFFF" d="M100.633,56.029l3.591-2.418l0.081,1.422l-2.502,1.575l2.663,1.317l0.07,1.287l-3.834-1.965
						l-2.432,0.134l-0.066-1.216L100.633,56.029z"/>
				</g>
			</g>
			<g>
				<g>
					<path fill="#FFFFFF" d="M27.695,66.668l0.943,3.274l-0.932,0.271l-0.604-2.096l-1.456,0.422l0.574,1.991l-0.93,0.271
						l-0.574-1.995l-2.594,0.75l-0.342-1.183L27.695,66.668z"/>
				</g>
			</g>
			<g>
				<g>
					<path fill="#FFFFFF" d="M30.579,74.216c0.85,1.728,0.156,3.275-1.517,4.094c-1.667,0.822-3.338,0.457-4.195-1.287
						c-0.87-1.764-0.145-3.277,1.548-4.106C28.109,72.085,29.717,72.468,30.579,74.216z M25.737,76.595
						c0.554,1.131,1.762,1.056,2.76,0.563c0.975-0.476,1.749-1.418,1.21-2.513c-0.535-1.094-1.753-1.053-2.728-0.577
						C25.98,74.559,25.182,75.468,25.737,76.595z"/>
				</g>
			</g>
			<g>
				<g>
					<path fill="#FFFFFF" d="M33.196,79.06l0.767,0.962l-2.78,2.207c-0.823,0.651-1.153,1.343-0.567,2.078
						c0.583,0.739,1.33,0.573,2.15-0.082l2.781-2.211l0.767,0.965l-3.08,2.444c-1.289,1.025-2.4,0.721-3.381-0.508
						c-0.978-1.233-1.025-2.39,0.264-3.415L33.196,79.06z"/>
				</g>
			</g>
			<g>
				<g>
					<path fill="#FFFFFF" d="M38.245,84.95l1.172,0.955l-1.106,5.041l0.014,0.008l2.913-3.558l0.913,0.743l-3.898,4.763l-1.163-0.95
						l1.098-5.051l-0.016-0.008l-2.911,3.559l-0.912-0.743L38.245,84.95z"/>
				</g>
			</g>
			<g>
				<g>
					<path fill="#FFFFFF" d="M44.486,89.653l1.502,0.752c1.677,0.846,2.879,2.157,1.78,4.342c-1.095,2.182-2.866,2.001-4.544,1.157
						l-1.5-0.75L44.486,89.653z M43.257,94.84l0.613,0.309c0.918,0.459,2.149,0.22,2.752-0.979c0.601-1.194,0.061-2.327-0.859-2.789
						l-0.613-0.31L43.257,94.84z"/>
				</g>
			</g>
			<g>
				<g>
					<path fill="#FFFFFF" d="M51.603,92.817l3.498,0.937l-0.25,0.935l-2.309-0.615l-0.39,1.464l2.114,0.563l-0.25,0.936L51.9,96.473
						l-0.444,1.671l2.327,0.62l-0.25,0.938l-3.516-0.938L51.603,92.817z"/>
				</g>
			</g>
			<g>
				<g>
					<path fill="#FFFFFF" d="M57.807,94.235l1.676,0.097c1.875,0.104,3.499,0.833,3.36,3.271c-0.14,2.438-1.834,2.979-3.71,2.875
						l-1.674-0.096L57.807,94.235z M58.738,99.484l0.686,0.038c1.027,0.058,2.061-0.652,2.14-1.992
						c0.074-1.336-0.874-2.158-1.899-2.217l-0.683-0.038L58.738,99.484z"/>
				</g>
			</g>
			<g>
				<g>
					<path fill="#FFFFFF" d="M69.096,93.791l1.356-0.291l3.648,5.509l-1.333,0.289l-0.81-1.271l-2.432,0.526l-0.229,1.487
						l-1.244,0.268L69.096,93.791z M70.016,94.857l-0.018,0.003l-0.334,2.667l1.752-0.375L70.016,94.857z"/>
				</g>
			</g>
			<g>
				<g>
					<path fill="#FFFFFF" d="M75.47,97.158l1.156-0.418l0.42,1.159l-1.155,0.417L75.47,97.158z"/>
				</g>
			</g>
			<g>
				<g>
					<path fill="#FFFFFF" d="M77.034,91.329l1.475-0.799c1.654-0.9,3.417-1.13,4.581,1.017c1.163,2.149,0.004,3.497-1.648,4.392
						l-1.476,0.799L77.034,91.329z M80.587,95.3l0.602-0.323c0.904-0.494,1.409-1.639,0.772-2.818
						c-0.638-1.181-1.876-1.38-2.781-0.887l-0.603,0.325L80.587,95.3z"/>
				</g>
			</g>
			<g>
				<g>
					<path fill="#FFFFFF" d="M84.873,92.47l1.012-0.705l0.703,1.016l-1.009,0.703L84.873,92.47z"/>
				</g>
			</g>
			<g>
				<g>
					<path fill="#FFFFFF" d="M87.411,84.051l0.773-0.765l4.323,4.384l-0.875,0.864l-3.337-3.382l-0.145,1.328l-1.001-0.139
						L87.411,84.051z"/>
				</g>
			</g>
			<g>
				<g>
					<path fill="#FFFFFF" d="M92.921,82.291c-0.588,0.33-1.237,0.354-1.756-0.027c-0.884-0.657-0.808-1.636-0.145-2.533
						c0.644-0.868,1.583-1.385,2.411-0.775c0.448,0.334,0.764,0.991,0.58,1.697l0.008,0.006c0.785-0.425,1.431-0.407,1.997,0.011
						c1.001,0.738,0.91,1.784,0.187,2.761c-0.711,0.958-1.704,1.43-2.708,0.682c-0.555-0.407-0.707-1.002-0.561-1.81L92.921,82.291z
						 M93.213,81.111c0.104-0.349-0.006-0.854-0.31-1.079c-0.368-0.274-0.797-0.229-1.073,0.146
						c-0.265,0.361-0.333,0.865,0.062,1.16C92.319,81.65,92.835,81.354,93.213,81.111z M95.464,82.882
						c0.296-0.395,0.274-0.888-0.136-1.192c-0.488-0.361-1.032-0.117-1.471,0.191c-0.089,0.479-0.066,0.921,0.351,1.232
						C94.622,83.418,95.172,83.277,95.464,82.882z"/>
				</g>
			</g>
			<g>
				<g>
					<path fill="#FFFFFF" d="M96.213,73.331c-0.271,0.229-0.514,0.476-0.7,0.848c-0.472,0.946,0.249,1.713,1.054,2.157l0.024-0.012
						c-0.25-0.447-0.253-0.871-0.023-1.336c0.518-1.037,1.463-1.272,2.48-0.767c1.192,0.599,1.689,1.571,1.071,2.812
						c-0.763,1.526-2.202,1.232-3.493,0.585c-1.495-0.745-2.895-2.044-2.006-3.819c0.197-0.399,0.45-0.748,0.771-1.06L96.213,73.331
						z M97.94,76.899c0.519,0.259,1.087,0.267,1.355-0.276c0.257-0.508-0.133-0.97-0.622-1.213
						c-0.538-0.268-1.142-0.297-1.407,0.232C97,76.174,97.387,76.623,97.94,76.899z"/>
				</g>
			</g>
			<g>
				<g>
					<path fill="#FFFFFF" d="M98.268,66.77l-0.672,2.269l1.25,0.401c0.013-0.145,0.034-0.331,0.103-0.555
						c0.245-0.828,0.953-1.781,2.481-1.324c1.106,0.328,1.772,1.367,1.319,2.886c-0.134,0.456-0.369,0.962-0.576,1.324l-1.05-0.342
						c0.205-0.251,0.502-0.602,0.654-1.113c0.183-0.617,0.087-1.347-0.665-1.567c-0.762-0.227-1.222,0.368-1.423,1.042
						c-0.109,0.363-0.16,0.724-0.153,1.104l-3.151-1.003l1.005-3.38L98.268,66.77z"/>
				</g>
			</g>
		</g>
	</g>
</g>
</svg>
