<svg version="1.1" xmlns="http://www.w3.org/2000/svg" xmlns:xlink="http://www.w3.org/1999/xlink" x="0px" y="0px"
	 width="162px" height="46px" xml:space="preserve">
<g>
	<path fill="#B31B1B" d="M51.618,28.061c-0.878,0.53-2.376,0.816-3.299,0.816c-3.63,0-6.082-2.073-6.082-5.507
		c0-1.739,0.68-3.117,1.846-4.07c1.133-0.938,2.677-1.453,4.372-1.453c1.408,0,2.77,0.364,3.495,0.621
		c-0.151,0.71-0.287,1.512-0.287,2.299h-0.469v-1.089c0-0.424-0.605-0.681-1.301-0.938c-0.484-0.167-1.135-0.257-1.695-0.257
		c-2.845,0-4.343,2.072-4.343,4.645c0,2.995,1.982,4.932,4.979,4.932c1.089,0,2.375-0.393,3.071-0.907l0.136,0.149L51.618,28.061z"
		/>
	<path fill="#B31B1B" d="M52.585,25.336c0-2.269,1.421-3.856,3.857-3.856c1.937,0,3.435,1.512,3.435,3.447
		c0,2.316-1.649,3.95-3.964,3.95C54.007,28.938,52.585,27.425,52.585,25.336z M53.992,24.687c0,1.588,0.576,3.691,2.512,3.691
		c1.377,0,1.967-1.377,1.967-2.783c0-1.952-0.923-3.616-2.375-3.616C54.492,21.979,53.992,23.279,53.992,24.687z"/>
	<path fill="#B31B1B" d="M61.406,23.627c0-0.484-0.029-0.817-0.105-0.938c-0.092-0.121-0.243-0.166-0.561-0.166h-0.559v-0.424
		c0.892-0.09,1.8-0.377,2.36-0.62l0.136,0.06v1.528h0.031l0.817-0.968c0.363-0.438,0.877-0.62,1.269-0.62
		c0.258,0,0.577,0.076,0.697,0.166l-0.136,1.815h-0.317c-0.167-0.364-0.484-0.696-1.029-0.696c-0.667,0-1.332,0.696-1.332,1.665
		v2.602c0,0.408,0.016,0.71,0.077,0.878c0.059,0.136,0.287,0.196,0.635,0.211l0.787,0.047v0.454
		c-0.787-0.017-1.392-0.046-2.134-0.046c-0.741,0-1.346,0.029-1.89,0.046v-0.453l0.695-0.047c0.257-0.015,0.424-0.076,0.484-0.211
		c0.061-0.169,0.076-0.47,0.076-0.879L61.406,23.627L61.406,23.627z"/>
	<path fill="#B31B1B" d="M68.487,27.031c0,0.408,0.015,0.71,0.075,0.878c0.061,0.136,0.228,0.196,0.484,0.211l0.681,0.047v0.454
		c-0.529-0.017-1.134-0.046-1.875-0.046c-0.742,0-1.347,0.029-1.876,0.046v-0.453l0.68-0.047c0.257-0.015,0.423-0.076,0.484-0.211
		c0.06-0.169,0.075-0.47,0.075-0.879v-3.404c0-0.483-0.03-0.816-0.106-0.937c-0.09-0.122-0.242-0.167-0.561-0.167h-0.559v-0.424
		c0.893-0.09,1.8-0.377,2.36-0.62l0.136,0.06v1.285h0.03l1.12-0.967c0.333-0.288,0.621-0.378,1.225-0.378
		c1.772,0,2.497,0.983,2.497,2.632v2.92c0,0.408,0.015,0.71,0.076,0.878c0.061,0.136,0.228,0.196,0.484,0.211l0.621,0.047v0.454
		c-0.378-0.017-0.817-0.046-1.24-0.046c-0.424,0-0.864,0.029-1.211,0.046v-4.297c0-1.257-0.71-1.922-1.739-1.922
		c-0.923,0-1.861,0.802-1.861,1.421v3.208H68.487z"/>
	<path fill="#B31B1B" d="M81.24,24.249c0,0.21,0,0.422-0.029,0.634c-0.909,0.15-1.831,0.212-2.739,0.212h-2.209
		c0,1.77,0.877,2.98,2.738,2.98c0.727,0,1.302-0.363,1.876-0.711l0.197,0.151l-0.304,0.513c-0.105,0.183-1.391,0.849-2.42,0.849
		c-2.284,0-3.495-1.452-3.495-3.495c0-1.468,0.393-2.346,1.089-2.89c0.288-0.227,0.604-0.454,0.938-0.605
		c0.529-0.242,0.968-0.408,1.482-0.408C80.015,21.479,81.24,22.539,81.24,24.249z M76.293,24.489c1.241,0.138,2.512,0.106,3.6,0.045
		c0-1.405-0.513-2.555-1.604-2.555C77.125,21.979,76.216,22.84,76.293,24.489z"/>
	<path fill="#B31B1B" d="M82.753,19.194c0-0.348-0.045-0.621-0.379-0.621h-0.847V18.15c0.803-0.121,1.604-0.257,2.36-0.56
		l0.135,0.121v9.32c0,0.408,0.017,0.71,0.076,0.878c0.062,0.136,0.228,0.196,0.484,0.211l0.696,0.047v0.454
		c-0.546-0.017-1.15-0.046-1.892-0.046c-0.742,0-1.346,0.029-1.892,0.046v-0.453l0.697-0.047c0.256-0.015,0.424-0.076,0.484-0.211
		c0.06-0.169,0.075-0.47,0.075-0.879V19.194z"/>
	<path fill="#B31B1B" d="M87.231,19.194c0-0.348-0.046-0.621-0.378-0.621h-0.848V18.15c0.802-0.121,1.604-0.257,2.359-0.56
		l0.137,0.121v9.32c0,0.408,0.015,0.71,0.075,0.878c0.06,0.136,0.226,0.196,0.483,0.211l0.696,0.047v0.454
		c-0.544-0.017-1.149-0.046-1.893-0.046c-0.738,0-1.346,0.029-1.89,0.046v-0.453l0.696-0.047c0.257-0.015,0.425-0.076,0.484-0.211
		c0.062-0.169,0.075-0.47,0.075-0.879L87.231,19.194L87.231,19.194z"/>
	<path fill="#B31B1B" d="M94.463,19.965c0-0.574-0.029-0.968-0.137-1.134c-0.091-0.151-0.272-0.212-0.635-0.227l-0.726-0.045v-0.454
		c0.786,0.031,1.497,0.045,2.235,0.045c0.699,0,1.41-0.015,2.195-0.045v0.454l-0.724,0.045c-0.364,0.015-0.547,0.076-0.637,0.227
		c-0.106,0.166-0.136,0.56-0.136,1.134v5.205c0,2.148,1.118,2.771,3.116,2.771c1.634,0,3.115-0.621,3.115-3.133v-4.842
		c0-0.574-0.03-0.968-0.136-1.134c-0.09-0.151-0.27-0.198-0.636-0.227l-0.664-0.045l-0.001-0.454
		c0.604,0.016,1.211,0.045,1.756,0.045c0.604,0,1.148-0.03,1.817-0.045v0.454l-0.669,0.045c-0.363,0.029-0.543,0.076-0.634,0.227
		c-0.107,0.166-0.138,0.56-0.138,1.134v4.374c0,3.236-1.225,4.538-4.28,4.538c-2.572,0-4.085-0.771-4.085-3.54V19.965L94.463,19.965
		z"/>
	<path fill="#B31B1B" d="M106.249,27.031c0,0.408,0.016,0.71,0.075,0.878c0.06,0.136,0.227,0.196,0.482,0.211l0.683,0.047v0.454
		c-0.53-0.017-1.135-0.046-1.876-0.046c-0.742,0-1.349,0.029-1.878,0.046v-0.453l0.682-0.047c0.257-0.015,0.424-0.076,0.484-0.211
		c0.06-0.169,0.076-0.47,0.076-0.879v-3.404c0-0.483-0.03-0.816-0.106-0.937c-0.091-0.122-0.243-0.167-0.56-0.167h-0.56v-0.424
		c0.892-0.09,1.799-0.377,2.357-0.62l0.139,0.06v1.285h0.028l1.119-0.967c0.333-0.288,0.622-0.378,1.226-0.378
		c1.77,0,2.498,0.983,2.498,2.632v2.92c0,0.408,0.014,0.71,0.073,0.878c0.061,0.136,0.228,0.196,0.485,0.211l0.62,0.047v0.454
		c-0.379-0.017-0.817-0.046-1.24-0.046c-0.424,0-0.862,0.029-1.211,0.046v-4.297c0-1.257-0.71-1.922-1.74-1.922
		c-0.923,0-1.86,0.802-1.86,1.421v3.208H106.249z"/>
	<path fill="#B31B1B" d="M115.598,27.031c0,0.408,0.016,0.71,0.076,0.878c0.06,0.136,0.227,0.196,0.484,0.211l0.695,0.047v0.454
		c-0.544-0.017-1.149-0.046-1.891-0.046s-1.347,0.029-1.891,0.046v-0.453l0.694-0.047c0.257-0.015,0.425-0.076,0.483-0.211
		c0.063-0.169,0.077-0.47,0.077-0.879v-3.404c0-0.483-0.03-0.816-0.106-0.937c-0.091-0.122-0.242-0.167-0.56-0.167h-0.559v-0.424
		c0.892-0.09,1.8-0.377,2.356-0.62l0.139,0.06V27.031L115.598,27.031z M115.733,19.028c0,0.438-0.407,0.832-0.847,0.832
		c-0.438,0-0.833-0.393-0.833-0.832s0.395-0.847,0.833-0.847C115.326,18.181,115.733,18.589,115.733,19.028z"/>
	<path fill="#B31B1B" d="M121.603,27.031c-0.255,0.561-0.408,1.136-0.62,1.648h-0.756l-2.602-6.097
		c-0.091-0.212-0.182-0.484-0.47-0.499l-0.514-0.031V21.63c0.59,0.015,1.18,0.045,1.771,0.045c0.589,0,1.164-0.03,1.754-0.045v0.423
		l-0.74,0.031c-0.395,0.015-0.5,0.226-0.241,0.862l1.799,4.356c0.317-0.695,0.652-1.406,0.938-2.117l0.637-1.604
		c0.406-1.043,0.377-1.482-0.078-1.497l-0.62-0.031V21.63c0.47,0.015,0.955,0.045,1.423,0.045c0.47,0,0.953-0.03,1.423-0.045v0.423
		l-0.47,0.031c-0.378,0.03-0.636,0.559-0.847,1.012L121.603,27.031z"/>
	<path fill="#B31B1B" d="M130.97,24.249c0,0.21,0,0.422-0.03,0.634c-0.907,0.15-1.831,0.212-2.739,0.212h-2.209
		c0,1.77,0.879,2.98,2.738,2.98c0.726,0,1.303-0.363,1.876-0.711l0.196,0.151l-0.302,0.513c-0.107,0.183-1.392,0.849-2.421,0.849
		c-2.284,0-3.495-1.452-3.495-3.495c0-1.468,0.394-2.346,1.09-2.89c0.287-0.227,0.604-0.454,0.938-0.605
		c0.53-0.242,0.968-0.408,1.482-0.408C129.745,21.479,130.97,22.539,130.97,24.249z M126.022,24.489
		c1.24,0.138,2.512,0.106,3.601,0.045c0-1.405-0.516-2.555-1.604-2.555C126.854,21.979,125.945,22.84,126.022,24.489z"/>
	<path fill="#B31B1B" d="M133.012,23.627c0-0.484-0.029-0.817-0.106-0.938c-0.089-0.121-0.242-0.166-0.559-0.166h-0.562v-0.424
		c0.894-0.09,1.8-0.377,2.36-0.62l0.137,0.06v1.528h0.03l0.816-0.968c0.365-0.438,0.877-0.62,1.271-0.62
		c0.257,0,0.575,0.076,0.695,0.166l-0.137,1.815h-0.317c-0.166-0.364-0.483-0.696-1.027-0.696c-0.665,0-1.331,0.696-1.331,1.665
		v2.602c0,0.408,0.014,0.71,0.075,0.878c0.061,0.136,0.286,0.196,0.637,0.211l0.785,0.047v0.454
		c-0.785-0.017-1.393-0.046-2.134-0.046s-1.348,0.029-1.891,0.046v-0.453l0.696-0.047c0.257-0.015,0.424-0.076,0.483-0.211
		c0.061-0.169,0.075-0.47,0.075-0.879L133.012,23.627L133.012,23.627z"/>
	<path fill="#B31B1B" d="M138.187,26.411v0.62c0,0.938,1.073,1.287,1.949,1.287c0.956,0,1.773-0.56,1.773-1.378
		c0-0.484-0.259-0.877-0.729-0.998c-0.665-0.166-1.496-0.334-2.222-0.605c-0.729-0.271-1.287-0.725-1.287-1.648
		c0-1.634,1.424-2.208,2.844-2.208c0.713,0,1.361,0.167,1.953,0.378c-0.046,0.544-0.062,1.104-0.075,1.708h-0.424v-0.347
		c0-0.787-0.893-1.24-1.755-1.24c-1.287,0-1.483,0.711-1.483,1.225c0,0.651,0.5,1,1.648,1.198c1.803,0.301,2.648,0.756,2.648,1.934
		c0,1.666-1.664,2.542-3.344,2.542c-0.726,0-1.376-0.106-2.118-0.362c0.151-0.666,0.165-1.391,0.165-2.104H138.187L138.187,26.411z"
		/>
	<path fill="#B31B1B" d="M146.371,27.031c0,0.408,0.015,0.71,0.076,0.878c0.06,0.136,0.226,0.196,0.482,0.211l0.697,0.047v0.454
		c-0.545-0.017-1.151-0.046-1.893-0.046c-0.739,0-1.347,0.029-1.892,0.046v-0.453l0.695-0.047c0.259-0.015,0.427-0.076,0.485-0.211
		c0.06-0.169,0.075-0.47,0.075-0.879v-3.404c0-0.483-0.029-0.816-0.104-0.937c-0.09-0.122-0.243-0.167-0.562-0.167h-0.56v-0.424
		c0.892-0.09,1.8-0.377,2.359-0.62l0.138,0.06L146.371,27.031L146.371,27.031z M146.507,19.028c0,0.438-0.409,0.832-0.848,0.832
		s-0.832-0.393-0.832-0.832s0.394-0.847,0.832-0.847S146.507,18.589,146.507,19.028z"/>
	<path fill="#B31B1B" d="M147.958,22.855v-0.317l1.181-0.529v-1.06c0-0.393-0.015-0.786-0.062-1.194
		c0.545-0.167,1.028-0.409,1.287-0.575l0.183,0.167c-0.091,0.665-0.169,1.513-0.169,2.148v0.575l2.074-0.09l-0.137,0.816h-1.937
		v3.962c0,0.697,0.198,1.045,0.832,1.045c0.394,0,0.681-0.165,0.894-0.287l0.196,0.259l-0.726,0.802
		c-0.137,0.151-0.666,0.181-0.983,0.181c-0.802,0-1.482-0.378-1.482-1.604v-4.358L147.958,22.855z"/>
	<path fill="#B31B1B" d="M159.154,22.855c0.228-0.56,0-0.726-0.545-0.771l-0.393-0.031V21.63c0.483,0.015,0.951,0.045,1.438,0.045
		c0.483,0,0.954-0.03,1.438-0.045v0.423l-0.425,0.031c-0.363,0.03-0.696,0.499-1.271,1.832l-3.071,7.08
		c-0.483,1.104-1.029,1.86-2.296,1.86c-0.26,0-0.594-0.121-0.76-0.227l0.363-1.135h0.197c0.181,0.183,0.56,0.362,0.771,0.347
		c0.877-0.06,1.362-1.288,1.649-1.981l0.348-0.923c-0.257-0.711-0.561-1.455-0.847-2.15l-1.65-3.962
		c-0.242-0.574-0.454-0.709-0.786-0.741l-0.272-0.03v-0.423c0.59,0.015,1.166,0.045,1.755,0.045c0.591,0,1.166-0.029,1.756-0.045
		v0.423l-0.576,0.03c-0.423,0.015-0.681,0.167-0.363,0.983l0.968,2.541c0.212,0.577,0.457,1.119,0.773,1.664L159.154,22.855z"/>
</g>
<g>
	<path fill="#B31B1B" d="M18.119,37.767l-0.192-0.081c-0.393-0.167-9.632-4.217-9.632-11.555l0.002-13.177l19.618-0.003
		l0.001,13.414c0,7.035-9.215,11.148-9.607,11.32L18.119,37.767z M9.256,13.913L9.254,26.131c0,6.154,7.553,9.973,8.861,10.585
		c1.305-0.622,8.84-4.471,8.84-10.352l-0.001-12.453L9.256,13.913z"/>
</g>
<g>
	<path fill="#B31B1B" d="M13.785,20.669l-0.233-0.136c-0.042-0.025-1.046-0.614-1.719-1.064c-0.569-0.381-0.86-0.784-0.891-1.232
		c-0.007-0.094-0.007-1.885-0.005-3.373l0-0.48h5.743l0,0.479c0.005,2.166,0.004,3.301-0.001,3.372
		c-0.014,0.459-0.291,0.863-0.848,1.235c-0.678,0.455-1.762,1.046-1.808,1.07L13.785,20.669z M11.895,15.344
		c0,1.216,0,2.717,0.003,2.83c0.007,0.091,0.133,0.272,0.468,0.497c0.458,0.308,1.096,0.693,1.435,0.896
		c0.357-0.199,1.038-0.588,1.496-0.896c0.126-0.083,0.417-0.296,0.422-0.467l0.002-0.048c0.003-0.104,0.002-1.599,0-2.811
		L11.895,15.344L11.895,15.344z"/>
</g>
<g>
	<path fill="#B31B1B" d="M22.657,20.646l-0.235-0.136c-0.042-0.025-1.044-0.612-1.715-1.063c-0.569-0.381-0.861-0.784-0.893-1.232
		c-0.006-0.074-0.008-1.208-0.005-3.374l0-0.479h5.742l0.001,0.479c0.005,2.166,0.004,3.301-0.002,3.373
		c-0.01,0.453-0.287,0.859-0.845,1.234c-0.68,0.455-1.765,1.045-1.811,1.07L22.657,20.646z M20.769,15.322
		c-0.001,1.213-0.001,2.71,0.003,2.828c0.006,0.094,0.134,0.274,0.469,0.5c0.457,0.307,1.094,0.692,1.433,0.895
		c0.356-0.199,1.038-0.587,1.497-0.895c0.125-0.083,0.417-0.296,0.421-0.466l0.002-0.049c0.003-0.104,0.002-1.6,0-2.812H20.769z"/>
</g>
<g>
	<rect x="8.37" y="21.008" fill="#B31B1B" width="19.202" height="0.95"/>
</g>
<g>
	<path fill="#B31B1B" d="M18.087,32.696c-0.324,0-0.508-0.229-0.607-0.352c-0.109-0.133-0.162-0.171-0.339-0.175
		c-0.522,0-0.905,0.036-1.349,0.074c-0.434,0.039-0.926,0.087-1.626,0.101c-0.693,0.015-1.231-0.012-1.254-0.013l-0.453-0.026
		l0.001-8.995l0.47-0.01c0.144-0.003,0.31-0.002,0.504-0.002c0.275,0,0.614,0.001,1.041-0.009c0.326-0.009,0.708-0.049,1.148-0.096
		c0.26-0.027,0.538-0.056,0.837-0.083c0.618-0.069,1.181,0.045,1.205,0.05c0.172,0.04,0.317,0.095,0.438,0.158
		c0.12-0.061,0.262-0.114,0.433-0.155c0.034-0.006,0.596-0.122,1.227-0.05c0.29,0.026,0.569,0.055,0.83,0.083
		c0.439,0.047,0.819,0.088,1.143,0.096c0.426,0.01,0.766,0.01,1.042,0.009c0.196,0,0.361,0,0.504,0.003l0.47,0.01l0.001,8.994
		l-0.453,0.027c-0.023,0-0.561,0.029-1.254,0.012c-0.699-0.014-1.191-0.061-1.626-0.1c-0.45-0.039-0.84-0.075-1.376-0.074
		c-0.187,0-0.239,0.059-0.354,0.191C18.582,32.485,18.398,32.696,18.087,32.696z M17.141,31.211c0.011,0,0.021,0,0.03,0
		c0.474,0.002,0.754,0.204,0.924,0.381c0.178-0.178,0.463-0.379,0.947-0.381c0.59,0.008,1.01,0.037,1.466,0.077
		c0.438,0.043,0.894,0.083,1.561,0.098c0.275,0.006,0.526,0.005,0.724,0.001l-0.001-7.129c-0.058,0.002-0.119,0-0.184,0
		c-0.25,0-0.543-0.001-0.896-0.008c-0.362-0.009-0.76-0.052-1.222-0.102c-0.254-0.027-0.529-0.058-0.825-0.082
		c-0.485-0.057-0.92,0.032-0.924,0.033c-0.25,0.06-0.328,0.16-0.331,0.165l-0.269-0.158l-0.308,0.179l0,0.001
		c-0.002,0-0.105-0.125-0.377-0.189l0,0c-0.001,0-0.433-0.085-0.9-0.031c-0.305,0.025-0.577,0.056-0.832,0.083
		c-0.462,0.049-0.862,0.093-1.228,0.102c-0.436,0.008-0.782,0.008-1.064,0.008c-0.004,0-0.009,0-0.013,0l-0.001,7.129
		c0.2,0.004,0.451,0.005,0.725-0.001c0.667-0.015,1.122-0.055,1.562-0.098C16.152,31.249,16.576,31.211,17.141,31.211z"/>
</g>
<g>
	<rect x="11.417" y="16.26" fill="#B31B1B" width="4.747" height="0.798"/>
</g>
<g>
	<rect x="11.417" y="16.18" fill="#B31B1B" width="4.747" height="0.959"/>
</g>
<g>
	<rect x="17.674" y="21.179" fill="#B31B1B" width="0.798" height="16.146"/>
</g>
<g>
	<rect x="17.713" y="21.179" fill="#B31B1B" width="0.72" height="16.146"/>
</g>
<g>
	<polygon fill="#B31B1B" points="24.702,17.993 22.593,16.587 20.659,17.985 20.191,17.338 22.576,15.616 25.145,17.329 	"/>
</g>
<g>
	<polygon fill="#B31B1B" points="24.724,18.061 22.661,16.686 20.773,18.05 20.211,17.273 22.64,15.517 25.256,17.262 	"/>
</g>
<g>
	<path fill="#B31B1B" d="M21.891,25.703c-0.136-0.003-0.527-0.016-0.875-0.024l-0.334-0.01c-0.192-0.004-0.413-0.026-0.667-0.056
		c-0.127-0.012-0.263-0.028-0.407-0.041c-0.077-0.009-0.148-0.009-0.211-0.007l-0.021-0.504c0.087-0.005,0.183-0.002,0.282,0.008
		c0.144,0.014,0.283,0.028,0.412,0.044c0.239,0.023,0.447,0.048,0.627,0.052l0.334,0.008c0.348,0.012,0.737,0.021,0.873,0.024
		L21.891,25.703z"/>
</g>
<g>
	<path fill="#B31B1B" d="M21.892,27.242l-1.208-0.031c-0.19-0.004-0.407-0.027-0.655-0.054c-0.132-0.013-0.271-0.029-0.422-0.042
		c-0.08-0.011-0.151-0.013-0.215-0.012l-0.015-0.501c0.087-0.004,0.181,0,0.281,0.009c0.148,0.012,0.291,0.029,0.424,0.043
		c0.234,0.024,0.436,0.048,0.613,0.051l1.207,0.03L21.892,27.242z"/>
</g>
<g>
	<path fill="#B31B1B" d="M21.893,28.78c-0.099-0.001-0.33-0.007-0.582-0.014l-0.627-0.018c-0.188-0.003-0.404-0.025-0.65-0.052
		c-0.131-0.014-0.273-0.029-0.426-0.044c-0.077-0.007-0.15-0.009-0.213-0.007l-0.019-0.504c0.086-0.002,0.181,0,0.28,0.01
		c0.152,0.013,0.297,0.029,0.431,0.043c0.232,0.024,0.432,0.048,0.607,0.05l0.632,0.017c0.249,0.008,0.478,0.014,0.575,0.015
		L21.893,28.78z"/>
</g>
<g>
	<path fill="#B31B1B" d="M21.892,30.321c-0.174-0.003-0.766-0.019-1.151-0.028l-0.058-0.002c-0.188-0.004-0.403-0.028-0.65-0.052
		c-0.132-0.015-0.273-0.03-0.425-0.045c-0.078-0.008-0.151-0.01-0.213-0.008l-0.018-0.505c0.087-0.004,0.183,0,0.282,0.011
		c0.149,0.014,0.293,0.028,0.427,0.044c0.233,0.023,0.434,0.045,0.61,0.051l0.058,0.002c0.384,0.009,0.974,0.023,1.148,0.028
		L21.892,30.321z"/>
</g>
<g>
	<path fill="#B31B1B" d="M14.297,25.688l-0.01-0.502c0.177-0.004,0.786-0.021,1.17-0.03c0.224-0.004,0.435-0.028,0.679-0.054
		c0.125-0.014,0.258-0.029,0.4-0.041c0.088-0.01,0.178-0.017,0.258-0.011l-0.006,0.503c-0.065-0.001-0.132,0.001-0.202,0.01
		c-0.143,0.014-0.273,0.026-0.396,0.041c-0.259,0.028-0.482,0.051-0.685,0.057C15.086,25.67,14.476,25.685,14.297,25.688z"/>
</g>
<g>
	<path fill="#B31B1B" d="M14.297,27.229l-0.01-0.503l1.208-0.031c0.181-0.004,0.388-0.028,0.627-0.054
		c0.129-0.013,0.267-0.029,0.414-0.042c0.095-0.01,0.185-0.012,0.265-0.01l-0.021,0.506c-0.062-0.003-0.131,0-0.2,0.005
		c-0.141,0.015-0.276,0.027-0.402,0.044c-0.256,0.025-0.477,0.049-0.67,0.055L14.297,27.229z"/>
</g>
<g>
	<path fill="#B31B1B" d="M14.295,28.768l-0.006-0.505c0.184-0.002,0.826-0.02,1.205-0.032c0.178-0.002,0.384-0.022,0.623-0.047
		c0.131-0.016,0.271-0.029,0.421-0.041c0.083-0.013,0.173-0.015,0.256-0.013l-0.006,0.505c-0.062,0-0.129,0-0.198,0.007
		c-0.154,0.016-0.292,0.028-0.419,0.043c-0.251,0.027-0.469,0.05-0.667,0.053C15.125,28.747,14.479,28.766,14.295,28.768z"/>
</g>
<g>
	<path fill="#B31B1B" d="M14.295,30.312l-0.007-0.506c0.173-0.002,0.753-0.018,1.137-0.028l0.069-0.003
		c0.185-0.004,0.394-0.028,0.638-0.052c0.125-0.016,0.26-0.029,0.404-0.044c0.086-0.008,0.175-0.011,0.257-0.008l-0.007,0.504
		c-0.062,0-0.129-0.001-0.198,0.007c-0.145,0.013-0.278,0.027-0.401,0.042c-0.26,0.028-0.483,0.054-0.679,0.058l-0.067,0.002
		C15.053,30.291,14.469,30.31,14.295,30.312z"/>
</g>
<g>
	<g>
		<path fill="#B31B1B" d="M18.112,7.873c-8.536,0-15.48,6.944-15.48,15.48c0,8.538,6.944,15.48,15.48,15.48
			s15.481-6.942,15.481-15.48C33.593,14.816,26.648,7.873,18.112,7.873z M18.112,39.854c-9.098,0-16.499-7.404-16.499-16.5
			c0-9.099,7.401-16.5,16.499-16.5c9.098,0,16.5,7.401,16.5,16.5C34.612,32.449,27.21,39.854,18.112,39.854z"/>
		<path fill="#B31B1B" d="M18.112,8.122c-8.398,0-15.23,6.832-15.23,15.231s6.833,15.231,15.23,15.231s15.231-6.832,15.231-15.231
			C33.343,14.954,26.51,8.122,18.112,8.122z M18.112,39.587c-8.951,0-16.232-7.284-16.232-16.234
			c0-8.952,7.282-16.233,16.232-16.233c8.951,0,16.234,7.282,16.234,16.233C34.346,32.303,27.063,39.587,18.112,39.587z"/>
		<path fill="#B31B1B" d="M18.112,8.372c-8.26,0-14.98,6.72-14.98,14.981s6.72,14.982,14.98,14.982s14.981-6.721,14.981-14.982
			C33.093,15.092,26.373,8.372,18.112,8.372z M18.112,39.32c-8.804,0-15.966-7.164-15.966-15.967
			c0-8.804,7.163-15.967,15.966-15.967c8.804,0,15.968,7.163,15.968,15.967C34.08,32.156,26.917,39.32,18.112,39.32z"/>
	</g>
</g>
</svg>
